<?xml version="1.0" encoding="UTF-8" standalone="no"?>
<svg
   width="495.04297"
   height="495.04297"
   viewBox="0 0 495.04297 495.04297"
   version="1.1"
   id="svg109"
   sodipodi:docname="robot-and-gear.svg"
   inkscape:version="1.2.2 (b0a8486541, 2022-12-01)"
   xmlns:inkscape="http://www.inkscape.org/namespaces/inkscape"
   xmlns:sodipodi="http://sodipodi.sourceforge.net/DTD/sodipodi-0.dtd"
   xmlns="http://www.w3.org/2000/svg"
   xmlns:svg="http://www.w3.org/2000/svg">
  <sodipodi:namedview
     id="namedview111"
     pagecolor="#ffffff"
     bordercolor="#999999"
     borderopacity="1"
     inkscape:showpageshadow="0"
     inkscape:pageopacity="0"
     inkscape:pagecheckerboard="0"
     inkscape:deskcolor="#d1d1d1"
     showgrid="false"
     inkscape:zoom="1.3436426"
     inkscape:cx="248.57801"
     inkscape:cy="290.25575"
     inkscape:window-width="1866"
     inkscape:window-height="1011"
     inkscape:window-x="0"
     inkscape:window-y="0"
     inkscape:window-maximized="1"
     inkscape:current-layer="svg109" />
  <defs
     id="defs5">
    <clipPath
       id="clip-0">
      <path
         clip-rule="nonzero"
         d="M 0,0.8125 H 495.04297 V 496 H 0 Z m 0,0"
         id="path2" />
    </clipPath>
  </defs>
  <path
     fill-rule="nonzero"
     fill="#100e0c"
     fill-opacity="1"
     d="m 140.19531,571.16016 c 0,-0.75 -0.10937,-1.39844 -0.33203,-1.92969 -0.21484,-0.53906 -0.51953,-0.95313 -0.91016,-1.2461 -0.38671,-0.28515 -0.8164,-0.42968 -1.28906,-0.42968 -0.75,0 -1.38672,0.3164 -1.89844,0.92968 -0.51953,0.61719 -0.77734,1.52344 -0.77734,2.72657 0,1.1289 0.25781,2.00781 0.76953,2.6289 0.51172,0.62891 1.14844,0.94922 1.90625,0.94922 0.44922,0 0.8711,-0.14062 1.25781,-0.41797 0.37891,-0.27343 0.69141,-0.68359 0.92579,-1.22656 0.23437,-0.55078 0.34765,-1.20703 0.34765,-1.98437 z m -5.33203,-4.13672 v 0.34375 c 0.51172,-0.65625 1.03906,-1.14844 1.58984,-1.44922 0.55469,-0.3125 1.1836,-0.46875 1.88282,-0.46875 0.83203,0 1.60547,0.22656 2.30859,0.67969 0.70313,0.44921 1.25781,1.10546 1.66797,1.97656 0.41016,0.86719 0.60937,1.89062 0.60937,3.07812 0,0.8711 -0.11328,1.6836 -0.34765,2.40235 -0.23438,0.73437 -0.5625,1.35156 -0.97266,1.84375 -0.41015,0.49609 -0.90234,0.88281 -1.45703,1.14453 -0.56641,0.26953 -1.17187,0.40234 -1.80859,0.40234 -0.78125,0 -1.4375,-0.16406 -1.96485,-0.48828 -0.53125,-0.32422 -1.03125,-0.80078 -1.50781,-1.43359 v 4.26172 c 0,1.25 -0.43359,1.87109 -1.30469,1.87109 -0.51172,0 -0.85547,-0.16016 -1.01562,-0.48047 -0.16797,-0.32422 -0.25,-0.79297 -0.25,-1.41016 v -12.2539 c 0,-0.54297 0.10937,-0.94531 0.33984,-1.21094 0.22656,-0.26562 0.53516,-0.40234 0.92578,-0.40234 0.38282,0 0.69922,0.13672 0.94141,0.41406 0.24219,0.27734 0.36328,0.67187 0.36328,1.17969"
     id="path7" />
  <path
     fill-rule="nonzero"
     fill="#100e0c"
     fill-opacity="1"
     d="m 152.17578,575.37109 v -0.35937 c -0.32422,0.42969 -0.66797,0.78906 -1.02734,1.07812 -0.35938,0.29688 -0.75,0.51172 -1.17188,0.65235 -0.42969,0.14062 -0.91406,0.21093 -1.46094,0.21093 -0.65234,0 -1.24218,-0.14062 -1.76562,-0.42187 -0.52344,-0.28516 -0.92578,-0.67969 -1.20703,-1.17578 -0.34375,-0.60547 -0.51172,-1.47266 -0.51172,-2.59766 v -5.6289 c 0,-0.5625 0.125,-0.98829 0.37109,-1.26954 0.2461,-0.28125 0.57032,-0.42187 0.97266,-0.42187 0.41406,0 0.74219,0.14062 0.99609,0.42969 0.25391,0.28515 0.37891,0.70703 0.37891,1.26172 v 4.55078 c 0,0.65234 0.0547,1.20703 0.15625,1.65234 0.11328,0.44922 0.30078,0.79688 0.57812,1.05469 0.27344,0.24609 0.64844,0.375 1.11719,0.375 0.46485,0 0.89453,-0.14453 1.29688,-0.42578 0.41015,-0.28125 0.70703,-0.65235 0.89062,-1.10938 0.15235,-0.40234 0.22656,-1.28125 0.22656,-2.64062 v -3.45703 c 0,-0.55469 0.12891,-0.97657 0.38282,-1.26172 0.25,-0.28907 0.57422,-0.42969 0.98047,-0.42969 0.40625,0 0.73046,0.14062 0.97656,0.42187 0.24609,0.28125 0.36719,0.70704 0.36719,1.26954 v 8.22656 c 0,0.53906 -0.11329,0.94531 -0.35157,1.21484 -0.23437,0.27344 -0.53515,0.40625 -0.91015,0.40625 -0.3711,0 -0.67578,-0.14453 -0.92188,-0.41797 -0.24219,-0.28515 -0.36328,-0.67578 -0.36328,-1.1875"
     id="path9" />
  <path
     fill-rule="nonzero"
     fill="#100e0c"
     fill-opacity="1"
     d="m 160.06641,571.27344 c 0,1.1289 0.24609,1.99218 0.73828,2.60156 0.5,0.60547 1.14843,0.91406 1.95312,0.91406 0.6836,0 1.26953,-0.3125 1.76953,-0.93359 0.4961,-0.6211 0.7461,-1.50391 0.7461,-2.66406 0,-0.75782 -0.10547,-1.39844 -0.3125,-1.9375 -0.20703,-0.54297 -0.5,-0.96094 -0.875,-1.25391 -0.38672,-0.29297 -0.82032,-0.44531 -1.32813,-0.44531 -0.52344,0 -0.97656,0.15234 -1.38672,0.44531 -0.40625,0.29297 -0.72265,0.71875 -0.95703,1.28125 -0.23437,0.55469 -0.34765,1.21484 -0.34765,1.99219 z m -0.12891,-8.4375 v 4.33593 c 0.50391,-0.55859 1.03125,-0.97656 1.5625,-1.27734 0.53125,-0.29687 1.19141,-0.44531 1.97266,-0.44531 0.90625,0 1.69531,0.22656 2.375,0.67187 0.67968,0.45313 1.21093,1.09766 1.58593,1.94532 0.37891,0.84765 0.5625,1.85546 0.5625,3.01953 0,0.86328 -0.10156,1.64843 -0.30859,2.37109 -0.21094,0.71484 -0.51172,1.33594 -0.91406,1.86719 -0.40235,0.52344 -0.88282,0.92578 -1.44922,1.22265 -0.57031,0.28516 -1.19531,0.42969 -1.87891,0.42969 -0.41797,0 -0.8125,-0.0547 -1.18359,-0.15234 -0.36719,-0.10938 -0.6836,-0.24219 -0.9375,-0.41797 -0.26172,-0.16016 -0.48438,-0.34375 -0.66797,-0.51953 -0.17969,-0.17969 -0.42188,-0.44922 -0.71875,-0.8086 v 0.27735 c 0,0.53515 -0.125,0.9375 -0.37109,1.21484 -0.24219,0.27344 -0.5586,0.40625 -0.9336,0.40625 -0.39062,0 -0.69531,-0.13281 -0.92578,-0.40625 -0.22656,-0.28125 -0.33984,-0.68359 -0.33984,-1.21484 v -12.39844 c 0,-0.57031 0.10937,-1.00391 0.33593,-1.30078 0.21875,-0.29688 0.52735,-0.44141 0.92969,-0.44141 0.41406,0 0.73828,0.14063 0.96094,0.42188 0.23047,0.28125 0.34375,0.67578 0.34375,1.19922"
     id="path11" />
  <path
     fill-rule="nonzero"
     fill="#100e0c"
     fill-opacity="1"
     d="m 169.91797,575.25 v -12.30859 c 0,-0.57032 0.12109,-1 0.35937,-1.29297 0.2461,-0.28907 0.57422,-0.4336 0.98438,-0.4336 0.41406,0 0.74219,0.14063 0.99609,0.42969 0.25,0.28516 0.37891,0.72266 0.37891,1.29688 V 575.25 c 0,0.57422 -0.12891,1.00781 -0.38672,1.29687 -0.25391,0.28516 -0.58594,0.42969 -0.98828,0.42969 -0.39844,0 -0.71875,-0.14844 -0.96875,-0.44531 -0.25,-0.30078 -0.375,-0.72656 -0.375,-1.28125"
     id="path13" />
  <path
     fill-rule="nonzero"
     fill="#100e0c"
     fill-opacity="1"
     d="M 178.16406,567.05078 V 575.25 c 0,0.57031 -0.13281,1 -0.38672,1.29297 -0.25781,0.28515 -0.58984,0.43359 -0.98437,0.43359 -0.40235,0 -0.72656,-0.14844 -0.97266,-0.44531 -0.24609,-0.30078 -0.375,-0.72656 -0.375,-1.28125 v -8.12109 c 0,-0.55469 0.12891,-0.97657 0.375,-1.26172 0.2461,-0.28907 0.57031,-0.42969 0.97266,-0.42969 0.39453,0 0.72656,0.14062 0.98437,0.42969 0.25391,0.28515 0.38672,0.67578 0.38672,1.18359 z m -1.34375,-2.93359 c -0.3789,0 -0.69922,-0.1211 -0.97656,-0.3711 -0.26172,-0.24218 -0.39844,-0.58593 -0.39844,-1.03515 0,-0.39844 0.13672,-0.72657 0.41406,-0.99219 0.27735,-0.25781 0.59375,-0.38281 0.96094,-0.38281 0.35156,0 0.66406,0.11718 0.9375,0.35156 0.26953,0.23437 0.40625,0.58203 0.40625,1.02344 0,0.44531 -0.13281,0.78515 -0.39844,1.02734 -0.26562,0.24609 -0.57812,0.37891 -0.94531,0.37891"
     id="path15" />
  <path
     fill-rule="nonzero"
     fill="#100e0c"
     fill-opacity="1"
     d="m 190.71875,573.46094 c 0,0.35156 -0.10156,0.73437 -0.30469,1.13281 -0.20312,0.40234 -0.51172,0.78516 -0.92969,1.14844 -0.41015,0.36328 -0.93359,0.65625 -1.5664,0.875 -0.62891,0.22656 -1.34375,0.33593 -2.13281,0.33593 -1.67969,0 -2.99219,-0.51171 -3.9336,-1.53125 -0.9414,-1.02343 -1.41406,-2.39062 -1.41406,-4.10937 0,-1.16406 0.21484,-2.19922 0.64453,-3.08984 0.42969,-0.88672 1.05859,-1.58594 1.875,-2.07032 0.8125,-0.49218 1.79297,-0.73828 2.92578,-0.73828 0.70703,0 1.35156,0.11328 1.94141,0.32422 0.58594,0.21484 1.08594,0.49219 1.49219,0.83203 0.41015,0.33985 0.71875,0.70313 0.9375,1.08594 0.21875,0.38281 0.32421,0.74219 0.32421,1.07422 0,0.33594 -0.125,0.625 -0.36328,0.85937 -0.24609,0.24219 -0.53515,0.35547 -0.88281,0.35547 -0.22656,0 -0.41016,-0.0664 -0.56641,-0.1875 -0.14453,-0.11328 -0.3125,-0.30469 -0.5,-0.58203 -0.33203,-0.52344 -0.67968,-0.92187 -1.04296,-1.19141 -0.36329,-0.26171 -0.82032,-0.39453 -1.375,-0.39453 -0.8086,0 -1.45704,0.33203 -1.94532,0.98828 -0.49218,0.65625 -0.73437,1.55079 -0.73437,2.6875 0,0.53125 0.0625,1.02735 0.1875,1.47266 0.125,0.44922 0.30859,0.82813 0.54687,1.14453 0.23828,0.31641 0.52735,0.55469 0.86719,0.71875 0.33594,0.16406 0.71094,0.24219 1.11328,0.24219 0.54688,0 1.01172,-0.12891 1.40235,-0.39063 0.39062,-0.26562 0.73437,-0.66796 1.03125,-1.20312 0.16406,-0.32813 0.34375,-0.57422 0.53906,-0.75781 0.19531,-0.17969 0.42969,-0.26563 0.70703,-0.26563 0.33203,0 0.60937,0.12891 0.82812,0.39063 0.21485,0.26953 0.32813,0.54687 0.32813,0.84375"
     id="path17" />
  <path
     fill-rule="nonzero"
     fill="#100e0c"
     fill-opacity="1"
     d="m 195.19531,571.19141 c 0,0.76953 0.11719,1.41796 0.34375,1.96484 0.23047,0.53906 0.53906,0.94141 0.9375,1.21484 0.40235,0.27735 0.83985,0.41797 1.30469,0.41797 0.48047,0 0.91797,-0.13281 1.3125,-0.39062 0.39453,-0.26172 0.70703,-0.66407 0.94531,-1.19922 0.23828,-0.53516 0.35547,-1.20703 0.35547,-2.00781 0,-0.76172 -0.11719,-1.40625 -0.35547,-1.95313 -0.23828,-0.54687 -0.55469,-0.96094 -0.95312,-1.25391 -0.40235,-0.28515 -0.84375,-0.42968 -1.32032,-0.42968 -0.49609,0 -0.9414,0.15234 -1.33593,0.44531 -0.38672,0.29297 -0.69532,0.71875 -0.91016,1.26953 -0.21484,0.55469 -0.32422,1.1875 -0.32422,1.92188 z m 5.34766,4.16406 v -0.27735 c -0.36719,0.4336 -0.72656,0.78907 -1.08594,1.0586 -0.34766,0.27734 -0.73437,0.48437 -1.15234,0.6289 -0.41407,0.13672 -0.86719,0.21094 -1.35547,0.21094 -0.65235,0 -1.25781,-0.14453 -1.8086,-0.42969 -0.55468,-0.29687 -1.03515,-0.70312 -1.4414,-1.23437 -0.40235,-0.53516 -0.71094,-1.16016 -0.92188,-1.88672 -0.21093,-0.71484 -0.3125,-1.49609 -0.3125,-2.33984 0,-1.76953 0.41797,-3.16016 1.2461,-4.14844 0.83203,-0.99219 1.92187,-1.48828 3.27734,-1.48828 0.78125,0 1.44531,0.14453 1.98047,0.42969 0.53906,0.27734 1.0625,0.70703 1.57422,1.29296 v -4.1914 c 0,-0.58203 0.10937,-1.01953 0.33594,-1.31641 0.21875,-0.30078 0.53515,-0.44922 0.94531,-0.44922 0.41406,0 0.73047,0.13672 0.95312,0.41016 0.22266,0.26953 0.33594,0.67578 0.33594,1.21094 v 12.51953 c 0,0.53906 -0.12109,0.94531 -0.35937,1.21484 -0.23829,0.27344 -0.54688,0.40625 -0.92969,0.40625 -0.36719,0 -0.67578,-0.14062 -0.92188,-0.41797 -0.23828,-0.28125 -0.35937,-0.67968 -0.35937,-1.20312"
     id="path19" />
  <path
     fill-rule="nonzero"
     fill="#100e0c"
     fill-opacity="1"
     d="m 213.29687,571.21094 c 0,-1.15235 -0.25,-2.05469 -0.73437,-2.69922 -0.48828,-0.64063 -1.14844,-0.96875 -1.96875,-0.96875 -0.53516,0 -1,0.14844 -1.40625,0.43359 -0.40234,0.29297 -0.71484,0.71485 -0.93359,1.27735 -0.21875,0.55468 -0.33204,1.20703 -0.33204,1.95703 0,0.74609 0.11329,1.39062 0.32422,1.94531 0.21485,0.55469 0.52735,0.97656 0.92969,1.27344 0.40234,0.29297 0.87891,0.4375 1.41797,0.4375 0.82031,0 1.48047,-0.32032 1.96875,-0.96875 0.48437,-0.64453 0.73437,-1.54297 0.73437,-2.6875 z m 2.72657,0 c 0,0.84375 -0.12891,1.625 -0.37891,2.33984 -0.25,0.71094 -0.61719,1.32422 -1.08984,1.83984 -0.48438,0.51563 -1.05469,0.89844 -1.71875,1.17969 -0.66407,0.27344 -1.41407,0.40625 -2.24219,0.40625 -0.82031,0 -1.5625,-0.13281 -2.21875,-0.41406 -0.65625,-0.27734 -1.23047,-0.67578 -1.71094,-1.19141 -0.48047,-0.51562 -0.84375,-1.12109 -1.09765,-1.82812 -0.2461,-0.70703 -0.3711,-1.48047 -0.3711,-2.33594 0,-0.85937 0.12891,-1.64453 0.375,-2.35547 0.25391,-0.71875 0.61328,-1.32422 1.08594,-1.83203 0.47266,-0.50391 1.04297,-0.89453 1.71875,-1.16797 0.67187,-0.27344 1.40625,-0.41406 2.21875,-0.41406 0.82422,0 1.57422,0.14062 2.24219,0.41797 0.66797,0.27344 1.24218,0.67578 1.72265,1.1875 0.48047,0.51172 0.84375,1.125 1.08594,1.83203 0.25391,0.70703 0.37891,1.48437 0.37891,2.33594"
     id="path21" />
  <path
     fill-rule="nonzero"
     fill="#100e0c"
     fill-opacity="1"
     d="m 227.51172,568.86719 c -0.20703,0.48047 -0.30078,1.32812 -0.30078,2.54687 v 3.77344 c 0,0.59375 -0.12891,1.04297 -0.39063,1.34375 -0.25781,0.29687 -0.60547,0.44531 -1.02734,0.44531 -0.41016,0 -0.74219,-0.14844 -0.9961,-0.44531 -0.25781,-0.30078 -0.38281,-0.75 -0.38281,-1.34375 v -4.52734 c 0,-0.71485 -0.0273,-1.26563 -0.0742,-1.66797 -0.0469,-0.39063 -0.17187,-0.71485 -0.375,-0.96875 -0.20312,-0.25391 -0.53125,-0.38282 -0.97265,-0.38282 -0.89063,0 -1.47657,0.32032 -1.76172,0.96094 -0.28516,0.63672 -0.41797,1.55078 -0.41797,2.7461 v 3.83984 c 0,0.58984 -0.13281,1.03906 -0.38281,1.33203 -0.25782,0.30859 -0.59766,0.45703 -1.00782,0.45703 -0.41796,0 -0.75781,-0.14844 -1.01953,-0.45703 -0.26172,-0.29297 -0.38672,-0.74219 -0.38672,-1.33203 v -8.12109 c 0,-0.53516 0.11329,-0.94141 0.34375,-1.21875 0.24219,-0.27344 0.55079,-0.41797 0.9375,-0.41797 0.3711,0 0.6836,0.1289 0.92969,0.39062 0.25,0.25781 0.375,0.61328 0.375,1.07422 v 0.26953 c 0.46875,-0.58984 0.97656,-1.02344 1.51172,-1.29687 0.53516,-0.27735 1.14063,-0.41797 1.79297,-0.41797 0.68359,0 1.26953,0.14453 1.75781,0.42969 0.4961,0.28125 0.89844,0.71093 1.21485,1.28515 0.46093,-0.57812 0.94921,-1.01172 1.47656,-1.29297 0.52734,-0.28125 1.10547,-0.42187 1.74219,-0.42187 0.75,0 1.38671,0.14844 1.92187,0.46094 0.53906,0.30468 0.94141,0.73828 1.20703,1.30859 0.23438,0.51172 0.34766,1.32031 0.34766,2.42578 v 5.54297 c 0,0.59375 -0.12891,1.04297 -0.38281,1.34375 -0.26563,0.29687 -0.60547,0.44531 -1.03125,0.44531 -0.41407,0 -0.75,-0.14844 -1.00782,-0.45703 -0.26562,-0.29297 -0.39843,-0.74219 -0.39843,-1.33203 v -4.77734 c 0,-0.61329 -0.0234,-1.09766 -0.0703,-1.46485 -0.0508,-0.37109 -0.1875,-0.67578 -0.41015,-0.92578 -0.21485,-0.25 -0.55078,-0.37891 -0.99219,-0.37891 -0.35547,0 -0.69922,0.11329 -1.01563,0.32813 -0.32812,0.22656 -0.57421,0.52344 -0.7539,0.89844"
     id="path23" />
  <path
     fill-rule="nonzero"
     fill="#100e0c"
     fill-opacity="1"
     d="m 242.91016,571.26562 c -0.39844,0.15625 -0.98047,0.3125 -1.73829,0.48438 -0.76171,0.17187 -1.28906,0.29687 -1.58203,0.375 -0.29297,0.0859 -0.57031,0.23828 -0.83203,0.46875 -0.26953,0.23828 -0.40234,0.5625 -0.40234,0.97656 0,0.4336 0.15625,0.79688 0.46484,1.09766 0.31641,0.30859 0.72656,0.45312 1.23047,0.45312 0.53516,0 1.03516,-0.125 1.48828,-0.37109 0.45313,-0.24219 0.79297,-0.5625 1,-0.94922 0.2461,-0.42969 0.3711,-1.13672 0.3711,-2.12891 z m 0.17968,4.11329 c -0.66015,0.53515 -1.29687,0.93359 -1.91015,1.19531 -0.61328,0.26953 -1.30469,0.40234 -2.06641,0.40234 -0.69922,0 -1.30859,-0.14453 -1.83984,-0.42969 -0.53125,-0.28906 -0.9336,-0.67968 -1.21875,-1.17578 -0.28516,-0.49218 -0.42969,-1.01953 -0.42969,-1.59765 0,-0.77735 0.24219,-1.4375 0.71094,-1.98438 0.46875,-0.54687 1.11328,-0.91406 1.9375,-1.10156 0.17187,-0.043 0.60547,-0.13281 1.28515,-0.27734 0.69141,-0.15235 1.26953,-0.28125 1.76563,-0.40235 0.48437,-0.11719 1.01562,-0.26562 1.58594,-0.4375 -0.0352,-0.7539 -0.17579,-1.30078 -0.42969,-1.66015 -0.26172,-0.34375 -0.79297,-0.51563 -1.59375,-0.51563 -0.69531,0 -1.21094,0.0977 -1.5625,0.29688 -0.34766,0.19921 -0.64844,0.5039 -0.89453,0.91015 -0.25,0.39844 -0.42188,0.66797 -0.52735,0.79297 -0.10547,0.13281 -0.32812,0.19141 -0.66015,0.19141 -0.3086,0 -0.57032,-0.10157 -0.79297,-0.30469 -0.22266,-0.20703 -0.33594,-0.46484 -0.33594,-0.78906 0,-0.4961 0.17188,-0.98438 0.50781,-1.44922 0.33985,-0.47266 0.86719,-0.86328 1.58203,-1.17188 0.71875,-0.30468 1.61329,-0.45703 2.6836,-0.45703 1.1914,0 2.13281,0.15235 2.82422,0.44531 0.67968,0.29297 1.16015,0.75391 1.44531,1.39844 0.28125,0.63281 0.42187,1.48438 0.42187,2.53516 0,0.66406 0,1.23437 -0.004,1.69531 -0.004,0.46875 -0.008,0.98047 -0.0117,1.55078 0,0.53125 0.082,1.08985 0.25391,1.66797 0.16406,0.57813 0.25,0.95313 0.25,1.11328 0,0.29297 -0.13282,0.5586 -0.39454,0.79688 -0.25781,0.23828 -0.55859,0.35937 -0.88671,0.35937 -0.28516,0 -0.55469,-0.13281 -0.83204,-0.40625 -0.26953,-0.27734 -0.55859,-0.67578 -0.86328,-1.1914"
     id="path25" />
  <path
     fill-rule="nonzero"
     fill="#100e0c"
     fill-opacity="1"
     d="M 251.0625,567.05078 V 575.25 c 0,0.57031 -0.13281,1 -0.38672,1.29297 -0.25781,0.28515 -0.58594,0.43359 -0.98437,0.43359 -0.39844,0 -0.72657,-0.14844 -0.97266,-0.44531 -0.25,-0.30078 -0.375,-0.72656 -0.375,-1.28125 v -8.12109 c 0,-0.55469 0.125,-0.97657 0.375,-1.26172 0.24609,-0.28907 0.57422,-0.42969 0.97266,-0.42969 0.39843,0 0.72656,0.14062 0.98437,0.42969 0.25391,0.28515 0.38672,0.67578 0.38672,1.18359 z m -1.34375,-2.93359 c -0.375,0 -0.69922,-0.1211 -0.96875,-0.3711 -0.26953,-0.24218 -0.40625,-0.58593 -0.40625,-1.03515 0,-0.39844 0.14062,-0.72657 0.41797,-0.99219 0.26953,-0.25781 0.59375,-0.38281 0.95703,-0.38281 0.35156,0 0.66797,0.11718 0.94141,0.35156 0.26562,0.23437 0.40234,0.58203 0.40234,1.02344 0,0.44531 -0.13281,0.78515 -0.39844,1.02734 -0.26562,0.24609 -0.58203,0.37891 -0.94531,0.37891"
     id="path27" />
  <path
     fill-rule="nonzero"
     fill="#100e0c"
     fill-opacity="1"
     d="m 256.34766,567.00781 v 0.33985 c 0.47265,-0.65625 0.99609,-1.14063 1.55859,-1.44532 0.57031,-0.30859 1.22656,-0.46484 1.96484,-0.46484 0.71485,0 1.35938,0.16016 1.92578,0.49219 0.5586,0.32422 0.98438,0.78125 1.25782,1.375 0.18359,0.35156 0.29687,0.72656 0.35156,1.1289 0.0508,0.39844 0.082,0.91016 0.082,1.53516 V 575.25 c 0,0.57031 -0.12891,1 -0.37891,1.29297 -0.25,0.28515 -0.57421,0.43359 -0.96875,0.43359 -0.40625,0 -0.73437,-0.14844 -0.97656,-0.44531 -0.25781,-0.30078 -0.38672,-0.72656 -0.38672,-1.28125 v -4.72656 c 0,-0.94141 -0.12109,-1.65625 -0.37109,-2.14844 -0.25391,-0.49609 -0.75,-0.75 -1.49609,-0.75 -0.48047,0 -0.92188,0.15625 -1.32032,0.45703 -0.39843,0.29688 -0.6914,0.71484 -0.875,1.24219 -0.13281,0.42578 -0.20312,1.21094 -0.20312,2.375 V 575.25 c 0,0.57422 -0.125,1.00781 -0.38281,1.29687 -0.25782,0.28516 -0.58594,0.42969 -0.98829,0.42969 -0.39062,0 -0.71484,-0.14844 -0.96484,-0.44531 -0.25781,-0.30078 -0.38281,-0.72656 -0.38281,-1.28125 v -8.19922 c 0,-0.54297 0.11328,-0.94531 0.34375,-1.21094 0.21875,-0.26562 0.53515,-0.40234 0.92578,-0.40234 0.23437,0 0.45312,0.0625 0.64062,0.17578 0.19922,0.11719 0.34766,0.30078 0.46485,0.52734 0.11328,0.23829 0.17969,0.52735 0.17969,0.86719"
     id="path29" />
  <path
     fill-rule="nonzero"
     fill="#100e0c"
     fill-opacity="1"
     d="m 267.85156,567.20312 2.19531,6.44532 2.375,-6.72657 c 0.1875,-0.54296 0.36719,-0.91796 0.55079,-1.14453 0.17968,-0.22656 0.44921,-0.33984 0.8125,-0.33984 0.34765,0 0.64062,0.12109 0.88671,0.36719 0.23829,0.24218 0.35938,0.51953 0.35938,0.84375 0,0.125 -0.0234,0.26562 -0.0664,0.42968 -0.0391,0.16797 -0.0898,0.32422 -0.14843,0.47266 -0.0547,0.14063 -0.11719,0.30859 -0.19532,0.49609 l -2.60547,6.75782 c -0.0742,0.1914 -0.17187,0.4414 -0.28515,0.73828 -0.11719,0.29687 -0.25,0.54687 -0.38672,0.76953 -0.14844,0.20703 -0.32422,0.36719 -0.53125,0.48437 -0.21094,0.1211 -0.46484,0.17969 -0.76563,0.17969 -0.38281,0 -0.6914,-0.0898 -0.92187,-0.26953 -0.23047,-0.1875 -0.39844,-0.38672 -0.50781,-0.60937 -0.10547,-0.21485 -0.29688,-0.64844 -0.55078,-1.29297 l -2.59375,-6.6836 c -0.0586,-0.16406 -0.1211,-0.33203 -0.1875,-0.5 -0.0586,-0.16406 -0.10938,-0.33203 -0.15625,-0.50781 -0.0391,-0.17578 -0.0664,-0.32422 -0.0664,-0.44531 0,-0.19922 0.0586,-0.38672 0.17187,-0.57813 0.11329,-0.1914 0.26954,-0.35156 0.46875,-0.46875 0.20313,-0.12109 0.41407,-0.18359 0.65235,-0.18359 0.44531,0 0.75781,0.13672 0.92578,0.41016 0.17187,0.26953 0.36328,0.72265 0.57031,1.35546"
     id="path31" />
  <path
     fill-rule="nonzero"
     fill="#100e0c"
     fill-opacity="1"
     d="m 278.97656,570.28516 h 4.92578 c -0.0625,-0.96485 -0.30859,-1.69141 -0.75,-2.17188 -0.43359,-0.48047 -1.00781,-0.71875 -1.71875,-0.71875 -0.67578,0 -1.23437,0.24219 -1.66406,0.73047 -0.4375,0.48437 -0.69922,1.20703 -0.79297,2.16016 z m 5.32031,1.61718 h -5.32031 c 0,0.64453 0.12891,1.21485 0.36719,1.71094 0.24609,0.48438 0.56641,0.85547 0.96875,1.10938 0.40234,0.2539 0.84766,0.37109 1.33203,0.37109 0.32422,0 0.625,-0.0391 0.89063,-0.11328 0.26562,-0.0859 0.53125,-0.21094 0.78515,-0.375 0.2461,-0.17188 0.48047,-0.35156 0.69531,-0.55078 0.20704,-0.19532 0.49219,-0.45313 0.82422,-0.78907 0.14063,-0.1289 0.34375,-0.1875 0.59766,-0.1875 0.28516,0 0.50781,0.0781 0.67969,0.24219 0.17187,0.15625 0.2539,0.37891 0.2539,0.67188 0,0.25781 -0.0937,0.55468 -0.28515,0.90234 -0.19141,0.33594 -0.47657,0.66797 -0.8711,0.98828 -0.39062,0.3125 -0.8789,0.57031 -1.46875,0.78516 -0.58203,0.20703 -1.25781,0.30859 -2.02734,0.30859 -1.74219,0 -3.10156,-0.52344 -4.07031,-1.55859 -0.96485,-1.04297 -1.44922,-2.44922 -1.44922,-4.22656 0,-0.85157 0.12109,-1.6211 0.35547,-2.33985 0.24218,-0.71875 0.58593,-1.33203 1.04687,-1.84375 0.46094,-0.51562 1.01953,-0.91015 1.69141,-1.17969 0.67578,-0.27734 1.41406,-0.41406 2.23437,-0.41406 1.05469,0 1.96875,0.23438 2.73047,0.70703 0.76172,0.46485 1.33203,1.06641 1.71094,1.80469 0.37891,0.74609 0.56641,1.5 0.56641,2.27734 0,0.70704 -0.19141,1.16797 -0.58594,1.37891 -0.39453,0.21484 -0.94141,0.32031 -1.65235,0.32031"
     id="path33" />
  <path
     fill-rule="nonzero"
     fill="#100e0c"
     fill-opacity="1"
     d="m 298.58203,573.46094 c 0,0.35156 -0.10156,0.73437 -0.30859,1.13281 -0.20313,0.40234 -0.50391,0.78516 -0.92188,1.14844 -0.41406,0.36328 -0.9414,0.65625 -1.57422,0.875 -0.6289,0.22656 -1.33984,0.33593 -2.125,0.33593 -1.6875,0 -2.99609,-0.51171 -3.9375,-1.53125 -0.9414,-1.02343 -1.41406,-2.39062 -1.41406,-4.10937 0,-1.16406 0.21094,-2.19922 0.64844,-3.08984 0.43359,-0.88672 1.05078,-1.58594 1.87109,-2.07032 0.8125,-0.49218 1.79297,-0.73828 2.92969,-0.73828 0.70312,0 1.34766,0.11328 1.9375,0.32422 0.58594,0.21484 1.08203,0.49219 1.49609,0.83203 0.41016,0.33985 0.71485,0.70313 0.9336,1.08594 0.21484,0.38281 0.32422,0.74219 0.32422,1.07422 0,0.33594 -0.1211,0.625 -0.3711,0.85937 -0.23828,0.24219 -0.53125,0.35547 -0.875,0.35547 -0.22656,0 -0.41406,-0.0664 -0.55859,-0.1875 -0.15625,-0.11328 -0.32031,-0.30469 -0.50781,-0.58203 -0.33204,-0.52344 -0.67969,-0.92187 -1.03907,-1.19141 -0.36328,-0.26171 -0.82422,-0.39453 -1.38281,-0.39453 -0.80078,0 -1.44922,0.33203 -1.9375,0.98828 -0.5,0.65625 -0.74219,1.55079 -0.74219,2.6875 0,0.53125 0.0664,1.02735 0.1875,1.47266 0.12891,0.44922 0.3125,0.82813 0.55469,1.14453 0.23828,0.31641 0.52734,0.55469 0.86719,0.71875 0.33203,0.16406 0.70703,0.24219 1.11328,0.24219 0.54297,0 1.01172,-0.12891 1.39844,-0.39063 0.38672,-0.26562 0.73437,-0.66796 1.03515,-1.20312 0.16797,-0.32813 0.33985,-0.57422 0.53907,-0.75781 0.1875,-0.17969 0.42187,-0.26563 0.70703,-0.26563 0.32422,0 0.60547,0.12891 0.8164,0.39063 0.22657,0.26953 0.33594,0.54687 0.33594,0.84375"
     id="path35" />
  <path
     fill-rule="nonzero"
     fill="#100e0c"
     fill-opacity="1"
     d="m 301.10937,565.67578 h 0.29688 v -1.70703 c 0,-0.45313 0.0156,-0.8125 0.0391,-1.07422 0.0234,-0.26172 0.082,-0.47656 0.19531,-0.66797 0.10157,-0.1914 0.25391,-0.35156 0.45704,-0.47656 0.19921,-0.11719 0.41796,-0.17188 0.66406,-0.17188 0.34375,0 0.66015,0.13282 0.93359,0.39844 0.1836,0.1836 0.30469,0.39844 0.35547,0.65625 0.0508,0.26172 0.0703,0.63672 0.0703,1.11328 v 1.92969 h 1 c 0.38672,0 0.6836,0.0977 0.88282,0.28906 0.20703,0.19141 0.30468,0.4336 0.30468,0.73047 0,0.38281 -0.14453,0.65235 -0.4375,0.80078 -0.28515,0.15235 -0.69922,0.22657 -1.23437,0.22657 h -0.51563 v 5.23046 c 0,0.44141 0.0195,0.78516 0.0469,1.02735 0.0351,0.23828 0.11719,0.43359 0.24609,0.57812 0.125,0.15235 0.33594,0.23047 0.63281,0.23047 0.15625,0 0.3711,-0.0312 0.64454,-0.0898 0.26953,-0.0586 0.48046,-0.0898 0.63671,-0.0898 0.21875,0 0.42188,0.0977 0.59375,0.26954 0.17188,0.1914 0.26563,0.41406 0.26563,0.68359 0,0.45703 -0.23828,0.80859 -0.71875,1.05078 -0.48438,0.24219 -1.16797,0.36328 -2.0625,0.36328 -0.84766,0 -1.49609,-0.14844 -1.93359,-0.44531 -0.4375,-0.30078 -0.72657,-0.71094 -0.85938,-1.24219 -0.13672,-0.52734 -0.20703,-1.23047 -0.20703,-2.10937 v -5.45703 h -0.35938 c -0.38671,0 -0.6875,-0.0977 -0.89453,-0.29297 -0.20703,-0.19141 -0.30468,-0.4336 -0.30468,-0.73438 0,-0.29687 0.10156,-0.53906 0.3164,-0.73047 0.21875,-0.1914 0.53125,-0.28906 0.94531,-0.28906"
     id="path37" />
  <path
     fill-rule="nonzero"
     fill="#100e0c"
     fill-opacity="1"
     d="m 315.62891,571.21094 c 0,-1.15235 -0.2461,-2.05469 -0.73438,-2.69922 -0.49219,-0.64063 -1.14062,-0.96875 -1.96484,-0.96875 -0.53516,0 -1,0.14844 -1.40625,0.43359 -0.40625,0.29297 -0.71875,0.71485 -0.9336,1.27735 -0.22265,0.55468 -0.33203,1.20703 -0.33203,1.95703 0,0.74609 0.10938,1.39062 0.32813,1.94531 0.21484,0.55469 0.51953,0.97656 0.92187,1.27344 0.39844,0.29297 0.875,0.4375 1.42188,0.4375 0.82422,0 1.47265,-0.32032 1.96484,-0.96875 0.48828,-0.64453 0.73438,-1.54297 0.73438,-2.6875 z m 2.73046,0 c 0,0.84375 -0.125,1.625 -0.38281,2.33984 -0.25,0.71094 -0.61719,1.32422 -1.09375,1.83984 -0.48047,0.51563 -1.05078,0.89844 -1.71094,1.17969 -0.66796,0.27344 -1.41015,0.40625 -2.24218,0.40625 -0.82813,0 -1.57032,-0.13281 -2.22657,-0.41406 -0.65234,-0.27734 -1.22656,-0.67578 -1.70703,-1.19141 -0.48047,-0.51562 -0.84765,-1.12109 -1.08984,-1.82812 -0.25,-0.70703 -0.37109,-1.48047 -0.37109,-2.33594 0,-0.85937 0.12109,-1.64453 0.37109,-2.35547 0.25781,-0.71875 0.61328,-1.32422 1.08594,-1.83203 0.47656,-0.50391 1.04297,-0.89453 1.71093,-1.16797 0.67969,-0.27344 1.41797,-0.41406 2.22657,-0.41406 0.82422,0 1.5664,0.14062 2.24218,0.41797 0.66797,0.27344 1.24219,0.67578 1.72266,1.1875 0.46875,0.51172 0.83984,1.125 1.08984,1.83203 0.25,0.70703 0.375,1.48437 0.375,2.33594"
     id="path39" />
  <path
     fill-rule="nonzero"
     fill="#100e0c"
     fill-opacity="1"
     d="M 323.20312,572.88672 V 575.25 c 0,0.57422 -0.13281,1.00781 -0.39062,1.29687 -0.25781,0.28516 -0.58594,0.42969 -0.98828,0.42969 -0.38672,0 -0.71485,-0.14844 -0.96485,-0.43359 -0.25,-0.29297 -0.375,-0.72266 -0.375,-1.29297 v -7.90234 c 0,-1.27344 0.44141,-1.91016 1.32422,-1.91016 0.44532,0 0.77344,0.15234 0.97657,0.44531 0.19531,0.29688 0.30078,0.74219 0.32812,1.32031 0.32422,-0.57812 0.66016,-1.02343 1.00391,-1.32031 0.33984,-0.29297 0.79297,-0.44531 1.36328,-0.44531 0.57812,0 1.1289,0.15234 1.66797,0.44531 0.53515,0.29688 0.80859,0.69531 0.80859,1.1875 0,0.34375 -0.11719,0.63672 -0.34766,0.85547 -0.22656,0.22656 -0.47265,0.34375 -0.74609,0.34375 -0.0937,0 -0.33984,-0.0664 -0.71875,-0.19922 -0.38281,-0.125 -0.72266,-0.1914 -1.01562,-0.1914 -0.39454,0 -0.71875,0.10546 -0.96875,0.32812 -0.25391,0.22266 -0.44922,0.54297 -0.58985,0.96875 -0.14062,0.4375 -0.24219,0.94531 -0.28906,1.53906 -0.0508,0.58985 -0.0781,1.3125 -0.0781,2.17188"
     id="path41" />
  <path
     fill-rule="nonzero"
     fill="#100e0c"
     fill-opacity="1"
     d="m 337.6875,573.26953 c 0,0.78516 -0.17969,1.45313 -0.55078,2.01172 -0.36719,0.55859 -0.90625,0.97656 -1.6211,1.26953 -0.71484,0.28125 -1.58203,0.42578 -2.60937,0.42578 -0.96875,0 -1.80859,-0.15234 -2.50781,-0.46875 -0.69922,-0.3125 -1.21485,-0.69922 -1.54297,-1.16797 -0.33594,-0.46484 -0.50781,-0.93359 -0.50781,-1.40234 0,-0.3125 0.10937,-0.58203 0.32812,-0.80078 0.21094,-0.22656 0.48047,-0.33203 0.80469,-0.33203 0.28515,0 0.50781,0.0742 0.66015,0.21484 0.15235,0.15234 0.29297,0.35547 0.4375,0.61719 0.27735,0.50781 0.60938,0.88281 1.00391,1.13281 0.38281,0.25391 0.91406,0.37891 1.58984,0.37891 0.54297,0 0.98829,-0.12891 1.33985,-0.38282 0.34375,-0.2539 0.52344,-0.53906 0.52344,-0.86718 0,-0.50391 -0.17969,-0.86719 -0.54297,-1.09375 -0.36328,-0.23438 -0.95703,-0.44922 -1.78907,-0.65625 -0.93359,-0.24219 -1.69921,-0.5 -2.28906,-0.76563 -0.58594,-0.26562 -1.0625,-0.62109 -1.41015,-1.05859 -0.35157,-0.42969 -0.53125,-0.96875 -0.53125,-1.60938 0,-0.57031 0.16406,-1.10547 0.49218,-1.60937 0.32032,-0.50781 0.8086,-0.91016 1.44141,-1.21094 0.63281,-0.30469 1.39844,-0.45703 2.29687,-0.45703 0.69922,0 1.33204,0.0781 1.89844,0.23047 0.5586,0.15234 1.03516,0.35937 1.40235,0.61328 0.375,0.25781 0.66406,0.53906 0.85937,0.84766 0.19922,0.3164 0.29688,0.62109 0.29688,0.91796 0,0.32813 -0.10157,0.58594 -0.31641,0.80469 -0.21094,0.19922 -0.51172,0.30469 -0.89063,0.30469 -0.28125,0 -0.51562,-0.082 -0.71875,-0.25 -0.1914,-0.16406 -0.41796,-0.41406 -0.66796,-0.74219 -0.20704,-0.27734 -0.44922,-0.5 -0.73047,-0.66797 -0.27735,-0.16015 -0.65625,-0.25 -1.13282,-0.25 -0.49218,0 -0.90234,0.10938 -1.22265,0.33203 -0.32813,0.21485 -0.49219,0.48829 -0.49219,0.81641 0,0.29688 0.12109,0.53906 0.35547,0.73047 0.24219,0.19141 0.5625,0.34766 0.96875,0.47656 0.41016,0.125 0.96484,0.27735 1.67578,0.45703 0.84766,0.21485 1.53125,0.46875 2.07031,0.76953 0.53125,0.29688 0.9375,0.64844 1.21094,1.05469 0.28125,0.41016 0.41797,0.8711 0.41797,1.38672"
     id="path43" />
  <path
     fill-rule="nonzero"
     fill="#100e0c"
     fill-opacity="1"
     d="m 340.77734,576.97656 c -0.41406,0 -0.76953,-0.13281 -1.0625,-0.41406 -0.30468,-0.27734 -0.45312,-0.66797 -0.45312,-1.16406 0,-0.41797 0.14062,-0.78516 0.42187,-1.08985 0.28907,-0.30468 0.64063,-0.45312 1.0586,-0.45312 0.41797,0 0.77734,0.14844 1.0664,0.44922 0.29688,0.30078 0.44922,0.67187 0.44922,1.09375 0,0.49218 -0.15234,0.8789 -0.44922,1.16015 -0.28906,0.27735 -0.63281,0.41797 -1.03125,0.41797"
     id="path45" />
  <path
     fill-rule="nonzero"
     fill="#100e0c"
     fill-opacity="1"
     d="m 352.80078,571.21094 c 0,-1.15235 -0.24219,-2.05469 -0.73437,-2.69922 -0.48829,-0.64063 -1.14063,-0.96875 -1.96094,-0.96875 -0.53516,0 -0.9961,0.14844 -1.40625,0.43359 -0.40235,0.29297 -0.71485,0.71485 -0.9336,1.27735 -0.21484,0.55468 -0.32812,1.20703 -0.32812,1.95703 0,0.74609 0.10547,1.39062 0.32031,1.94531 0.22266,0.55469 0.52735,0.97656 0.92969,1.27344 0.40234,0.29297 0.87109,0.4375 1.41797,0.4375 0.82031,0 1.47265,-0.32032 1.96094,-0.96875 0.49218,-0.64453 0.73437,-1.54297 0.73437,-2.6875 z m 2.73438,0 c 0,0.84375 -0.125,1.625 -0.38282,2.33984 -0.2539,0.71094 -0.61328,1.32422 -1.09375,1.83984 -0.48437,0.51563 -1.04687,0.89844 -1.71093,1.17969 -0.66407,0.27344 -1.41016,0.40625 -2.24219,0.40625 -0.82422,0 -1.56641,-0.13281 -2.22266,-0.41406 -0.65625,-0.27734 -1.22265,-0.67578 -1.70312,-1.19141 -0.49219,-0.51562 -0.85157,-1.12109 -1.10547,-1.82812 -0.24219,-0.70703 -0.36719,-1.48047 -0.36719,-2.33594 0,-0.85937 0.125,-1.64453 0.37891,-2.35547 0.25781,-0.71875 0.61328,-1.32422 1.08203,-1.83203 0.47265,-0.50391 1.04297,-0.89453 1.71484,-1.16797 0.67188,-0.27344 1.40625,-0.41406 2.22266,-0.41406 0.82031,0 1.57031,0.14062 2.24219,0.41797 0.67187,0.27344 1.24609,0.67578 1.72265,1.1875 0.47656,0.51172 0.83985,1.125 1.08985,1.83203 0.25,0.70703 0.375,1.48437 0.375,2.33594"
     id="path47" />
  <path
     fill-rule="nonzero"
     fill="#100e0c"
     fill-opacity="1"
     d="M 360.37891,572.88672 V 575.25 c 0,0.57422 -0.13282,1.00781 -0.39063,1.29687 -0.25391,0.28516 -0.58594,0.42969 -0.98047,0.42969 -0.39844,0 -0.71875,-0.14844 -0.97265,-0.43359 -0.25391,-0.29297 -0.37891,-0.72266 -0.37891,-1.29297 v -7.90234 c 0,-1.27344 0.44922,-1.91016 1.32812,-1.91016 0.45313,0 0.77344,0.15234 0.97266,0.44531 0.19531,0.29688 0.3125,0.74219 0.33594,1.32031 0.32031,-0.57812 0.65234,-1.02343 0.99219,-1.32031 0.34765,-0.29297 0.80468,-0.44531 1.36718,-0.44531 0.58203,0 1.13672,0.15234 1.66797,0.44531 0.53906,0.29688 0.8125,0.69531 0.8125,1.1875 0,0.34375 -0.11719,0.63672 -0.34375,0.85547 -0.23047,0.22656 -0.47656,0.34375 -0.75,0.34375 -0.0937,0 -0.33203,-0.0664 -0.71484,-0.19922 -0.38281,-0.125 -0.71875,-0.1914 -1.01563,-0.1914 -0.39453,0 -0.71875,0.10546 -0.98047,0.32812 -0.24609,0.22266 -0.4414,0.54297 -0.58593,0.96875 -0.13282,0.4375 -0.23047,0.94531 -0.28125,1.53906 -0.0547,0.58985 -0.082,1.3125 -0.082,2.17188"
     id="path49" />
  <path
     fill-rule="nonzero"
     fill="#100e0c"
     fill-opacity="1"
     d="m 368.23047,571.11719 c 0,1.14453 0.24219,2.01562 0.72265,2.60937 0.48047,0.58594 1.10547,0.88281 1.86329,0.88281 0.45312,0 0.88281,-0.1289 1.28515,-0.38281 0.40235,-0.2539 0.72656,-0.63672 0.98047,-1.14453 0.25781,-0.51172 0.37891,-1.125 0.37891,-1.85156 0,-1.16016 -0.2461,-2.0586 -0.73438,-2.69922 -0.48828,-0.65234 -1.1289,-0.97656 -1.92578,-0.97656 -0.77344,0 -1.39844,0.3164 -1.86328,0.92968 -0.47266,0.61719 -0.70703,1.49219 -0.70703,2.63282 z m 7.88281,-3.60157 v 8.2461 c 0,0.94922 -0.10156,1.75781 -0.29297,2.43359 -0.1914,0.67969 -0.5,1.24219 -0.92578,1.6836 -0.42187,0.44531 -0.98437,0.77343 -1.66406,0.98828 -0.69141,0.21093 -1.54688,0.32031 -2.57031,0.32031 -0.9375,0 -1.77344,-0.13281 -2.50782,-0.40625 -0.73828,-0.28125 -1.30859,-0.62891 -1.70703,-1.06641 -0.39453,-0.42968 -0.59765,-0.875 -0.59765,-1.33593 0,-0.34766 0.10937,-0.62891 0.34375,-0.84375 0.22265,-0.22266 0.49609,-0.33204 0.8125,-0.33204 0.39843,0 0.74218,0.1836 1.05078,0.55079 0.14453,0.1914 0.29687,0.3789 0.44922,0.5664 0.15625,0.19141 0.32812,0.35938 0.51562,0.49219 0.19141,0.13672 0.42188,0.23828 0.6875,0.30469 0.26172,0.0625 0.57031,0.0976 0.91797,0.0976 0.69531,0 1.25,-0.10547 1.63672,-0.30468 0.38672,-0.20704 0.66015,-0.49219 0.82031,-0.85938 0.14844,-0.36719 0.24609,-0.75781 0.26563,-1.17578 0.0312,-0.42969 0.0469,-1.09766 0.0664,-2.03125 -0.41797,0.60937 -0.90625,1.07422 -1.44922,1.39453 -0.55078,0.32031 -1.20312,0.47266 -1.95312,0.47266 -0.91797,0 -1.71485,-0.23438 -2.39063,-0.72266 -0.68359,-0.48828 -1.20703,-1.16406 -1.57031,-2.03906 -0.36328,-0.8711 -0.55078,-1.87891 -0.55078,-3.02344 0,-0.85937 0.10937,-1.62891 0.33594,-2.31641 0.21875,-0.68359 0.53515,-1.26171 0.95312,-1.73437 0.40625,-0.46875 0.88672,-0.82813 1.42188,-1.06641 0.54297,-0.23437 1.125,-0.35937 1.77343,-0.35937 0.76954,0 1.4375,0.15625 2,0.46875 0.57032,0.30078 1.08985,0.79297 1.57813,1.44922 v -0.38282 c 0,-0.49609 0.11719,-0.875 0.34766,-1.15234 0.23046,-0.26562 0.53125,-0.40234 0.89453,-0.40234 0.52734,0 0.875,0.17578 1.05078,0.53515 0.16797,0.35938 0.25781,0.875 0.25781,1.55078"
     id="path51" />
  <path
     fill-rule="nonzero"
     fill="#100e0c"
     fill-opacity="1"
     d="m 258.24219,539.87891 h 4.03515 c -0.28515,2.17187 -1.17578,3.87109 -2.66015,5.09375 -1.3711,1.19531 -3.03125,1.78515 -4.97266,1.78515 -2.63281,0 -4.73828,-0.92578 -6.30469,-2.77344 -1.48828,-1.7539 -2.23047,-4.02343 -2.23047,-6.79296 0,-2.83985 0.73829,-5.10938 2.20704,-6.82813 1.47265,-1.71094 3.55078,-2.57422 6.23828,-2.57422 2,0 3.6914,0.54297 5.0625,1.61719 1.45312,1.16016 2.34375,2.78906 2.66015,4.875 h -4.03515 c -0.34766,-1.82031 -1.46094,-2.72656 -3.35157,-2.72656 -3.11718,0 -4.67968,1.84765 -4.67968,5.54297 0,1.73046 0.40234,3.14453 1.20312,4.24609 0.80469,1.10547 1.9336,1.65625 3.39063,1.65625 2.17578,0 3.32031,-1.03906 3.4375,-3.12109 z m -15.87891,-2.54688 c 0,3.61328 1.14453,6.66797 3.42969,9.15625 2.28906,2.48828 5.08984,3.73438 8.41797,3.73438 3.30859,0 6.10937,-1.2461 8.39453,-3.73438 2.29297,-2.48828 3.42969,-5.54297 3.42969,-9.15625 0,-3.60547 -1.13672,-6.66016 -3.42969,-9.15234 -2.28516,-2.49219 -5.08594,-3.73438 -8.39453,-3.73438 -3.32813,0 -6.12891,1.24219 -8.41797,3.73438 -2.28516,2.49218 -3.42969,5.54687 -3.42969,9.15234 z m -4.09766,0 c 0,-4.59375 1.55469,-8.51172 4.66407,-11.76953 3.11718,-3.25391 6.8789,-4.87891 11.28125,-4.87891 4.39062,0 8.14453,1.625 11.26172,4.87891 3.11328,3.25781 4.67187,7.17578 4.67187,11.76953 0,4.59766 -1.55859,8.52344 -4.67187,11.77344 -3.11719,3.25781 -6.8711,4.88672 -11.26172,4.88672 -4.40235,0 -8.16407,-1.62891 -11.28125,-4.88672 -3.10938,-3.25 -4.66407,-7.17578 -4.66407,-11.77344"
     id="path53" />
  <path
     fill-rule="nonzero"
     fill="#100e0c"
     fill-opacity="1"
     d="m 244.71484,547.77734 2.32813,1.97266 17.09375,-21.95703 -2.32422,-1.96875 -17.09766,21.95312"
     id="path55" />
  <g
     clip-path="url(#clip-0)"
     id="g61"
     transform="translate(0,-0.8125)">
    <path
       fill-rule="evenodd"
       fill="#a6dbf6"
       fill-opacity="1"
       d="M 0,495.85547 H 495.04297 V 0.8125 H 0 v 495.04297"
       id="path59" />
  </g>
  <g
     id="g420"
     transform="matrix(1.2532671,0,0,1.2532671,-60.232849,-51.886513)">
    <path
       fill-rule="evenodd"
       fill="#ffffff"
       fill-opacity="1"
       d="m 358.11719,199.40234 c -1.7461,1.41797 -1.66797,4.40235 0.17187,6.66407 1.83985,2.26562 4.7461,2.94921 6.48828,1.53125 1.7461,-1.41797 1.66797,-4.39844 -0.17187,-6.66407 -1.83985,-2.26172 -4.7461,-2.94922 -6.48828,-1.53125 z M 342.75,187.875 c 2.00781,-3.0625 6.85937,-3.43359 10.83594,-0.83203 3.97656,2.60547 5.57031,7.20312 3.5625,10.26562 -2.00391,3.06641 -6.85547,3.4375 -10.83203,0.83203 -3.97657,-2.60546 -5.57032,-7.19921 -3.56641,-10.26562"
       id="path57" />
    <path
       fill-rule="evenodd"
       fill="#224468"
       fill-opacity="1"
       d="m 204.52344,79.238281 28.17578,6.597657 -12.73828,54.406252 -28.17578,-6.59766 12.73828,-54.406249"
       id="path63" />
    <path
       fill-rule="evenodd"
       fill="#ffffff"
       fill-opacity="1"
       d="m 95.554688,251.35937 c 104.050782,0 186.386722,0 290.441402,0 7.65625,0 14.77735,6.26563 15.82813,13.92188 l 21.21094,154.79297 c 1.05078,7.65625 -4.35547,13.92187 -12.01172,13.92187 -120.73828,0 -219.75782,0 -340.496096,0 -7.65625,0 -13.0625,-6.26562 -12.011719,-13.92187 L 79.726562,265.28125 c 1.046876,-7.65625 8.171876,-13.92188 15.828126,-13.92188"
       id="path65" />
    <path
       fill-rule="evenodd"
       fill="#508ec5"
       fill-opacity="1"
       d="m 98.777344,257.03906 c -2.078125,0 -4.40625,2.14453 -4.6875,4.19922 L 73.347656,412.59766 c -0.121094,0.8789 0.05859,1.24218 0.957032,1.24218 110.980472,0 221.960932,0 332.937502,0 0.89843,0 1.07812,-0.36328 0.95703,-1.24218 L 387.46094,261.23828 c -0.28125,-2.05469 -2.61328,-4.19922 -4.69141,-4.19922 -94.66406,0 -189.32812,0 -283.992186,0"
       id="path67" />
    <path
       fill-rule="evenodd"
       fill="#224468"
       fill-opacity="1"
       d="m 244.54687,138.90625 c -13.875,5.71484 -19.17187,24.79297 -11.83203,42.61328 7.33985,17.82031 24.53907,27.63281 38.41797,21.91406 13.875,-5.71484 19.17578,-24.79297 11.83203,-42.61328 C 275.625,143 258.42578,133.1875 244.54687,138.90625"
       id="path69" />
    <path
       fill-rule="evenodd"
       fill="#224468"
       fill-opacity="1"
       d="m 228.02734,171.10937 55.21094,54.23829 20.00391,-27.15625 -39.60938,-42.875 -35.60547,15.79296"
       id="path71" />
    <path
       fill-rule="evenodd"
       fill="#224468"
       fill-opacity="1"
       d="m 350.68359,194.26562 -48.2539,-7.32421 c -9.89063,-1.5 -19.80078,2.57421 -25.77344,10.60156 -5.97266,8.02344 -7.03125,18.6875 -2.75391,27.73047 4.27735,9.03906 13.19141,14.98437 23.1836,15.46093 20.4414,0.96875 40.84765,-2.6289 59.72656,-10.53125 8.03125,-3.36328 12.68359,-11.82031 11.21875,-20.40625 -1.46484,-8.58203 -8.77344,-14.23046 -17.34766,-15.53125"
       id="path73" />
    <path
       fill-rule="evenodd"
       fill="#224468"
       fill-opacity="1"
       d="m 376.91797,200.60937 c 7.42578,0.88672 13.01172,1.90625 17.5039,-4.07421 1.32422,-1.76172 3.71094,-2.33594 5.6875,-1.3711 1.98047,0.96094 3,3.19531 2.42969,5.32031 -0.6875,2.5625 -2.07812,4.88282 -4.01562,6.69141 l -4.33985,10.27734 c -1.36328,3.86719 -4.35937,6.94141 -8.1914,8.40625 -2.19532,0.84375 -4.60157,0.9961 -6.89063,0.4375 l -5.53125,-1.51562 -13.74219,-3.94141 c -4.0664,0.30078 -7.90234,-1.95703 -9.60546,-5.66797 -1.70313,-3.71093 -0.92188,-8.08984 1.96093,-10.98046 l 2.37891,-5.75 c 2.55078,-4.14844 6.55859,-7.19922 11.24219,-8.55079 3.44531,-0.99218 6.3125,-3.39843 7.88672,-6.625 0.51953,-1.05859 1.63281,-1.6914 2.80859,-1.59765 1.17578,0.0937 2.17578,0.90234 2.51562,2.03125 1.17969,3.92187 -0.37109,8.14844 -3.80859,10.375 -2.00781,1.30078 -2.92969,3.76172 -2.26562,6.05859 l 3.97656,0.47656"
       id="path75" />
    <path
       fill-rule="evenodd"
       fill="#224468"
       fill-opacity="1"
       d="m 259.66406,296.10156 10.67969,76.60547 -29.48438,11.13672 -8.35937,-63.62891 27.16406,-24.11328"
       id="path77" />
    <path
       fill-rule="evenodd"
       fill="#224468"
       fill-opacity="1"
       d="m 291.9375,413.83984 -4.47266,-43.90625 c -0.87109,-8.52734 -6.72656,-17.03125 -15.07031,-21.89062 -8.34375,-4.85547 -17.70703,-5.21094 -24.10156,-0.91016 -12.94141,8.71485 -19.80078,23.58203 -18.78516,40.73438 0.50781,8.57812 1.67188,17.25781 3.48438,25.97265 h 58.94531"
       id="path79" />
    <path
       fill-rule="evenodd"
       fill="#ffffff"
       fill-opacity="1"
       d="m 241.07812,255.86328 c -20.21093,1.60938 -37.85546,20.92969 -39.41406,43.15234 -1.55469,22.22657 13.57031,38.9336 33.78125,37.32422 20.21094,-1.60937 37.85938,-20.92968 39.41406,-43.15234 1.55469,-22.22266 -13.57031,-38.93359 -33.78125,-37.32422"
       id="path81" />
    <path
       fill-rule="evenodd"
       fill="#224468"
       fill-opacity="1"
       d="m 248.17578,203.88281 c -17.23828,-7.10156 -54.52734,-17.92187 -58.63672,39.21875 -4.10547,57.14453 -13.44531,57.83594 3.79297,64.9375 17.23828,7.10156 43.48828,-10.45703 58.63672,-39.21875 15.14453,-28.76562 13.44531,-57.83594 -3.79297,-64.9375"
       id="path83" />
    <path
       fill-rule="evenodd"
       fill="#ffffff"
       fill-opacity="1"
       d="m 200.00391,127.36328 c 33.95312,0 68.30468,29.91797 76.72656,66.82422 8.41797,36.90234 -13.70313,73.83594 -43.33594,52.38672 -29.63281,-21.45313 -71.19531,-15.48438 -79.61719,-52.38672 -8.42187,-36.90625 12.27344,-66.82422 46.22657,-66.82422"
       id="path85" />
    <path
       fill-rule="evenodd"
       fill="#224468"
       fill-opacity="1"
       d="m 197.9375,138.90625 c 13.875,5.71484 19.17187,24.79297 11.83203,42.61328 -7.33984,17.82031 -24.53906,27.63281 -38.41797,21.91406 -13.875,-5.71484 -19.17578,-24.79297 -11.83203,-42.61328 C 166.85937,143 184.05859,133.1875 197.9375,138.90625"
       id="path87" />
    <path
       fill-rule="evenodd"
       fill="#224468"
       fill-opacity="1"
       d="m 171.13281,157.65625 -57.61718,51.67578 25.83984,21.67969 45.28906,-36.82422 -13.51172,-36.53125"
       id="path89" />
    <path
       fill-rule="evenodd"
       fill="#ffffff"
       fill-opacity="1"
       d="m 140.27734,278.60547 10.35547,-47.69531 c 2.125,-9.77344 -1.32031,-19.92188 -8.94922,-26.39063 -7.63281,-6.46484 -18.20703,-8.19531 -27.5,-4.5 -9.29687,3.69922 -15.792965,12.22266 -16.898434,22.16406 -2.257812,20.33985 0.04687,40.92969 6.742184,60.26953 2.84766,8.22657 10.9961,13.40625 19.65235,12.48438 8.66015,-0.91797 14.75781,-7.85938 16.59765,-16.33203"
       id="path91" />
    <path
       fill-rule="evenodd"
       fill="#ffffff"
       fill-opacity="1"
       d="m 198.73828,255.86328 c 20.21094,1.60938 37.85938,20.92969 39.41406,43.15234 1.55469,22.22657 -13.5664,38.9336 -33.78125,37.32422 -20.21093,-1.60937 -37.85547,-20.92968 -39.41015,-43.15234 -1.5586,-22.22266 13.5664,-38.93359 33.77734,-37.32422"
       id="path93" />
    <path
       fill-rule="evenodd"
       fill="#224468"
       fill-opacity="1"
       d="m 198.78516,284.56641 c 12.1914,0.97265 22.83593,12.625 23.77343,26.03125 0.9375,13.40625 -8.18359,23.48828 -20.375,22.51562 -12.19531,-0.97266 -22.83593,-12.625 -23.77734,-26.03125 -0.9375,-13.40625 8.1875,-23.48437 20.37891,-22.51562"
       id="path95" />
    <path
       fill-rule="evenodd"
       fill="#224468"
       fill-opacity="1"
       d="m 182.82031,296.10156 -10.67578,76.60547 29.48047,11.13672 8.35937,-63.62891 -27.16406,-24.11328"
       id="path97" />
    <path
       fill-rule="evenodd"
       fill="#ffffff"
       fill-opacity="1"
       d="m 149.42578,424.82812 5.59375,-54.89453 c 0.87109,-8.52734 6.72656,-17.03125 15.07031,-21.89062 8.34766,-4.85547 17.71094,-5.21094 24.10157,-0.91016 12.94531,8.71485 19.80078,23.58203 18.78515,40.73438 -0.72265,12.17578 -2.76562,24.5625 -6.10156,36.96093 h -57.44922"
       id="path99" />
    <path
       fill-rule="evenodd"
       fill="#224468"
       fill-opacity="1"
       d="m 132.28906,304.38672 c -1.35156,7.35547 -2.72265,12.86719 2.96485,17.73047 1.67187,1.42968 2.09765,3.84765 1.00781,5.76172 -1.08594,1.91406 -3.37891,2.78906 -5.46485,2.08593 -2.51562,-0.84375 -4.73828,-2.3789 -6.42578,-4.42968 l -9.98046,-4.98047 c -3.77344,-1.60157 -6.65235,-4.78516 -7.875,-8.70313 -0.69922,-2.25 -0.69922,-4.65625 0,-6.90625 l 1.86718,-5.42187 4.80078,-13.46485 c -0.0469,-4.08203 2.44922,-7.76562 6.25782,-9.23047 3.8125,-1.46484 8.13281,-0.41015 10.83593,2.64844 l 5.58985,2.73438 c 3.98047,2.8125 6.76953,7.0039 7.82031,11.76172 0.77734,3.5039 2.99609,6.51562 6.11328,8.28906 1.02734,0.58594 1.58984,1.73828 1.42188,2.90625 -0.17188,1.16797 -1.03907,2.11328 -2.1875,2.3789 -3.98829,0.92969 -8.10938,-0.88281 -10.11329,-4.45703 -1.17187,-2.08593 -3.57031,-3.15625 -5.90625,-2.64062 l -0.72656,3.9375"
       id="path101" />
    <path
       fill-rule="evenodd"
       fill="#ffffff"
       fill-opacity="1"
       d="m 251.13281,74.679688 -2.08594,-7.734376 c -4.39843,-16.3125 -20.96093,-26.183593 -37.40625,-22.289062 -16.4414,3.894531 -26.8164,20.148438 -23.42578,36.703125 1.71485,8.390625 7.92969,15.144531 16.14453,17.558594 5.30079,1.554691 9.14454,6.152341 9.73438,11.644531 0.54687,5.09375 4.1875,9.32031 9.14844,10.60547 6.53515,1.69531 13.23047,2.62109 19.95703,2.76562 5.92969,0.12891 10.99219,-3.88671 12.21875,-9.6875 l 5.59375,-26.457028 c -6.10938,-3.34375 -8.96485,-9.710937 -9.87891,-13.109374"
       id="path103" />
    <path
       fill-rule="evenodd"
       fill="#224468"
       fill-opacity="1"
       d="m 211.24219,92.5 c 8.48047,0 15.39453,-6.917969 15.39453,-15.394531 0,-8.476563 -6.91406,-15.394531 -15.39453,-15.394531 -8.47657,0 -15.39453,6.917968 -15.39453,15.394531 0,8.476562 6.91796,15.394531 15.39453,15.394531"
       id="path105" />
    <path
       fill-rule="evenodd"
       fill="#ffffff"
       fill-opacity="1"
       d="m 382.72266,97.238281 c -14.7461,0 -26.70313,11.953129 -26.70313,26.699219 0,14.74609 11.95703,26.70312 26.70313,26.70312 14.74609,0 26.69921,-11.95703 26.69921,-26.70312 0,-14.74609 -11.95312,-26.699219 -26.69921,-26.699219 z m 9.57812,-16.296875 c 8.94922,1.984375 16.87109,6.691406 22.85547,13.207032 l 10.06641,-3.425782 7.51562,13.015624 -7.98828,6.9961 c 1.30859,4.16796 2.01562,8.60156 2.01562,13.20312 0,4.60156 -0.70703,9.03516 -2.01562,13.20703 l 7.98828,6.99219 -7.51562,13.01953 -10.06641,-3.42578 c -5.98438,6.51172 -13.90625,11.21875 -22.85547,13.20312 l -2.0625,10.41797 h -15.03125 l -2.06641,-10.41797 c -8.94531,-1.98437 -16.86718,-6.6914 -22.85546,-13.20312 l -10.0625,3.42578 -7.51563,-13.01953 7.98438,-6.99219 c -1.3086,-4.17187 -2.01172,-8.60547 -2.01172,-13.20703 0,-4.60156 0.70312,-9.03516 2.01172,-13.20312 l -7.98438,-6.9961 7.51563,-13.015624 10.0625,3.425782 c 5.98828,-6.515626 13.91015,-11.222657 22.85546,-13.207032 l 2.06641,-10.417968 h 15.03125 l 2.0625,10.417968"
       id="path107" />
  </g>
</svg>
