<?xml version="1.0" encoding="us-ascii" standalone="no"?><svg xmlns="http://www.w3.org/2000/svg" xmlns:xlink="http://www.w3.org/1999/xlink" contentStyleType="text/css" height="601px" preserveAspectRatio="none" style="width:362px;height:601px;background:#FFFFFF;" version="1.1" viewBox="0 0 362 601" width="362px" zoomAndPan="magnify"><defs/><g><text fill="#000000" font-family="sans-serif" font-size="14" font-weight="bold" lengthAdjust="spacing" textLength="319.3125" x="20" y="34.9659">Buildbot Command in Pull Request Comment</text><text fill="#000000" font-family="sans-serif" font-size="14" font-weight="bold" lengthAdjust="spacing" textLength="70.0625" x="19.1563" y="65.0339">command</text><line style="stroke:#181818;stroke-width:1.5;" x1="49.1563" x2="49.1563" y1="105.6698" y2="105.6698"/><rect fill="none" height="29.0679" style="stroke:#181818;stroke-width:0.5;" width="72" x="49.1563" y="91.1358"/><text fill="#000000" font-family="sans-serif" font-size="14" lengthAdjust="spacing" textLength="62" x="54.1563" y="111.1018">/buildbot</text><line style="stroke:#181818;stroke-width:1.5;" x1="121.1563" x2="141.1563" y1="105.6698" y2="105.6698"/><path d="M149.1563,97.6698 C149.1563,103.6698 151.1563,105.6698 157.1563,105.6698 " fill="none" style="stroke:#181818;stroke-width:1.5;"/><line style="stroke:#181818;stroke-width:1.5;" x1="149.1563" x2="149.1563" y1="92.1358" y2="97.6698"/><path d="M149.1563,92.1358 C149.1563,86.1358 151.1563,84.1358 157.1563,84.1358 " fill="none" style="stroke:#181818;stroke-width:1.5;"/><line style="stroke:#181818;stroke-width:1.5;" x1="156.1563" x2="227.1563" y1="84.1358" y2="84.1358"/><path d="M196.7563,84.1358 L196.7563,81.1358 L190.7563,84.1358 L196.7563,87.1358 L196.7563,84.1358 " fill="#181818" style="stroke:#181818;stroke-width:1.5;"/><path d="M234.1563,97.6698 C234.1563,103.6698 232.1563,105.6698 226.1563,105.6698 " fill="none" style="stroke:#181818;stroke-width:1.5;"/><line style="stroke:#181818;stroke-width:1.5;" x1="234.1563" x2="234.1563" y1="92.1358" y2="97.6698"/><path d="M226.1563,84.1358 C232.1563,84.1358 234.1563,86.1358 234.1563,92.1358 " fill="none" style="stroke:#181818;stroke-width:1.5;"/><line style="stroke:#181818;stroke-width:1.5;" x1="141.1563" x2="156.1563" y1="105.6698" y2="105.6698"/><line style="stroke:#181818;stroke-width:1.5;" x1="227.1563" x2="242.1563" y1="105.6698" y2="105.6698"/><rect fill="#F1F1F1" height="29.0679" rx="5" ry="5" style="stroke:#181818;stroke-width:1.5;" width="53" x="165.1563" y="91.1358"/><text fill="#000000" font-family="sans-serif" font-size="14" lengthAdjust="spacing" textLength="43" x="170.1563" y="111.1018">option</text><path d="M156.1563,140.2038 L156.1563,167.9098 A0,0 0 0 0 156.1563,167.9098 L227.1563,167.9098 A0,0 0 0 0 227.1563,167.9098 L227.1563,150.2038 L217.1563,140.2038 L195.6563,140.2038 L191.6563,120.2038 L187.6563,140.2038 L156.1563,140.2038 A0,0 0 0 0 156.1563,140.2038 " fill="#FEFFDD" style="stroke:#181818;stroke-width:0.5;"/><path d="M217.1563,140.2038 L217.1563,150.2038 L227.1563,150.2038 L217.1563,140.2038 " fill="#FEFFDD" style="stroke:#181818;stroke-width:0.5;"/><text fill="#000000" font-family="sans-serif" font-size="13" lengthAdjust="spacing" textLength="50" x="162.1563" y="159.1008">optional</text><line style="stroke:#181818;stroke-width:1.5;" x1="156.1563" x2="165.1563" y1="105.6698" y2="105.6698"/><line style="stroke:#181818;stroke-width:1.5;" x1="218.1563" x2="227.1563" y1="105.6698" y2="105.6698"/><ellipse cx="23.1563" cy="105.6698" fill="none" rx="4" ry="4" style="stroke:#181818;stroke-width:2.0;"/><ellipse cx="272.1563" cy="105.6698" fill="#181818" rx="4" ry="4" style="stroke:#181818;stroke-width:1.0;"/><line style="stroke:#181818;stroke-width:1.5;" x1="27.1563" x2="49.1563" y1="105.6698" y2="105.6698"/><line style="stroke:#181818;stroke-width:1.5;" x1="242.1563" x2="268.1563" y1="105.6698" y2="105.6698"/><path d="M253.1563,105.6698 L253.1563,102.6698 L259.1563,105.6698 L253.1563,108.6698 L253.1563,105.6698 " fill="#181818" style="stroke:#181818;stroke-width:1.5;"/><text fill="#000000" font-family="sans-serif" font-size="14" font-weight="bold" lengthAdjust="spacing" textLength="45.625" x="19.1563" y="197.8757">option</text><line style="stroke:#181818;stroke-width:1.5;" x1="73.1563" x2="73.1563" y1="226.5116" y2="226.5116"/><rect fill="none" height="29.0679" style="stroke:#181818;stroke-width:0.5;" width="83" x="73.1563" y="211.9777"/><text fill="#000000" font-family="sans-serif" font-size="14" lengthAdjust="spacing" textLength="73" x="78.1563" y="231.9436">mandatory</text><line style="stroke:#181818;stroke-width:1.5;" x1="156.1563" x2="176.1563" y1="226.5116" y2="226.5116"/><rect fill="none" height="29.0679" style="stroke:#181818;stroke-width:0.5;" width="18" x="176.1563" y="211.9777"/><text fill="#000000" font-family="sans-serif" font-size="14" lengthAdjust="spacing" textLength="8" x="181.1563" y="231.9436">=</text><line style="stroke:#181818;stroke-width:1.5;" x1="194.1563" x2="214.1563" y1="226.5116" y2="226.5116"/><rect fill="#F1F1F1" height="29.0679" rx="5" ry="5" style="stroke:#181818;stroke-width:1.5;" width="64" x="214.1563" y="211.9777"/><text fill="#000000" font-family="sans-serif" font-size="14" lengthAdjust="spacing" textLength="54" x="219.1563" y="231.9436">boolean</text><line style="stroke:#181818;stroke-width:1.5;" x1="49.1563" x2="73.1563" y1="226.5116" y2="226.5116"/><line style="stroke:#181818;stroke-width:1.5;" x1="278.1563" x2="311.1563" y1="226.5116" y2="226.5116"/><line style="stroke:#181818;stroke-width:1.5;" x1="73.1563" x2="73.1563" y1="265.5796" y2="265.5796"/><rect fill="none" height="29.0679" style="stroke:#181818;stroke-width:0.5;" width="44" x="73.1563" y="251.0456"/><text fill="#000000" font-family="sans-serif" font-size="14" lengthAdjust="spacing" textLength="34" x="78.1563" y="271.0115">force</text><line style="stroke:#181818;stroke-width:1.5;" x1="117.1563" x2="137.1563" y1="265.5796" y2="265.5796"/><rect fill="none" height="29.0679" style="stroke:#181818;stroke-width:0.5;" width="18" x="137.1563" y="251.0456"/><text fill="#000000" font-family="sans-serif" font-size="14" lengthAdjust="spacing" textLength="8" x="142.1563" y="271.0115">=</text><line style="stroke:#181818;stroke-width:1.5;" x1="155.1563" x2="175.1563" y1="265.5796" y2="265.5796"/><rect fill="#F1F1F1" height="29.0679" rx="5" ry="5" style="stroke:#181818;stroke-width:1.5;" width="64" x="175.1563" y="251.0456"/><text fill="#000000" font-family="sans-serif" font-size="14" lengthAdjust="spacing" textLength="54" x="180.1563" y="271.0115">boolean</text><path d="M61.1563,253.5796 C61.1563,262.5796 64.1563,265.5796 73.1563,265.5796 " fill="none" style="stroke:#181818;stroke-width:1.5;"/><line style="stroke:#181818;stroke-width:1.5;" x1="239.1563" x2="287.1563" y1="265.5796" y2="265.5796"/><path d="M261.1563,265.5796 L261.1563,262.5796 L267.1563,265.5796 L261.1563,268.5796 L261.1563,265.5796 " fill="#181818" style="stroke:#181818;stroke-width:1.5;"/><path d="M299.1563,253.5796 C299.1563,262.5796 296.1563,265.5796 287.1563,265.5796 " fill="none" style="stroke:#181818;stroke-width:1.5;"/><line style="stroke:#181818;stroke-width:1.5;" x1="73.1563" x2="73.1563" y1="304.6475" y2="304.6475"/><rect fill="none" height="29.0679" style="stroke:#181818;stroke-width:0.5;" width="59" x="73.1563" y="290.1135"/><text fill="#000000" font-family="sans-serif" font-size="14" lengthAdjust="spacing" textLength="49" x="78.1563" y="310.0795">builder</text><line style="stroke:#181818;stroke-width:1.5;" x1="132.1563" x2="152.1563" y1="304.6475" y2="304.6475"/><rect fill="none" height="29.0679" style="stroke:#181818;stroke-width:0.5;" width="18" x="152.1563" y="290.1135"/><text fill="#000000" font-family="sans-serif" font-size="14" lengthAdjust="spacing" textLength="8" x="157.1563" y="310.0795">=</text><line style="stroke:#181818;stroke-width:1.5;" x1="170.1563" x2="190.1563" y1="304.6475" y2="304.6475"/><rect fill="#F1F1F1" height="29.0679" rx="5" ry="5" style="stroke:#181818;stroke-width:1.5;" width="97" x="190.1563" y="290.1135"/><text fill="#000000" font-family="sans-serif" font-size="14" lengthAdjust="spacing" textLength="87" x="195.1563" y="310.0795">buildername</text><path d="M214.1563,339.1814 L214.1563,366.8875 A0,0 0 0 0 214.1563,366.8875 L263.1563,366.8875 A0,0 0 0 0 263.1563,366.8875 L263.1563,349.1814 L253.1563,339.1814 L242.6563,339.1814 L238.6563,319.1814 L234.6563,339.1814 L214.1563,339.1814 A0,0 0 0 0 214.1563,339.1814 " fill="#FEFFDD" style="stroke:#181818;stroke-width:0.5;"/><path d="M253.1563,339.1814 L253.1563,349.1814 L263.1563,349.1814 L253.1563,339.1814 " fill="#FEFFDD" style="stroke:#181818;stroke-width:0.5;"/><text fill="#000000" font-family="sans-serif" font-size="13" lengthAdjust="spacing" textLength="22" x="223.1563" y="358.0784">\w+</text><line style="stroke:#181818;stroke-width:1.5;" x1="287.1563" x2="287.1563" y1="304.6475" y2="304.6475"/><path d="M61.1563,292.6475 C61.1563,301.6475 64.1563,304.6475 73.1563,304.6475 " fill="none" style="stroke:#181818;stroke-width:1.5;"/><line style="stroke:#181818;stroke-width:1.5;" x1="61.1563" x2="61.1563" y1="238.5116" y2="292.6475"/><path d="M49.1563,226.5116 C58.1563,226.5116 61.1563,229.5116 61.1563,238.5116 " fill="none" style="stroke:#181818;stroke-width:1.5;"/><path d="M299.1563,292.6475 C299.1563,301.6475 296.1563,304.6475 287.1563,304.6475 " fill="none" style="stroke:#181818;stroke-width:1.5;"/><line style="stroke:#181818;stroke-width:1.5;" x1="299.1563" x2="299.1563" y1="238.5116" y2="292.6475"/><path d="M299.1563,238.5116 C299.1563,229.5116 302.1563,226.5116 311.1563,226.5116 " fill="none" style="stroke:#181818;stroke-width:1.5;"/><ellipse cx="23.1563" cy="226.5116" fill="none" rx="4" ry="4" style="stroke:#181818;stroke-width:2.0;"/><ellipse cx="341.1563" cy="226.5116" fill="#181818" rx="4" ry="4" style="stroke:#181818;stroke-width:1.0;"/><line style="stroke:#181818;stroke-width:1.5;" x1="27.1563" x2="49.1563" y1="226.5116" y2="226.5116"/><line style="stroke:#181818;stroke-width:1.5;" x1="311.1563" x2="337.1563" y1="226.5116" y2="226.5116"/><path d="M322.1563,226.5116 L322.1563,223.5116 L328.1563,226.5116 L322.1563,229.5116 L322.1563,226.5116 " fill="#181818" style="stroke:#181818;stroke-width:1.5;"/><text fill="#000000" font-family="sans-serif" font-size="14" font-weight="bold" lengthAdjust="spacing" textLength="57.0625" x="19.1563" y="396.8534">boolean</text><rect fill="#F1F1F1" height="29.0679" rx="5" ry="5" style="stroke:#181818;stroke-width:1.5;" width="38" x="111.6563" y="410.9554"/><text fill="#000000" font-family="sans-serif" font-size="14" lengthAdjust="spacing" textLength="28" x="116.6563" y="430.9213">true</text><path d="M73.1563,460.0233 L73.1563,487.7293 A0,0 0 0 0 73.1563,487.7293 L188.1563,487.7293 A0,0 0 0 0 188.1563,487.7293 L188.1563,470.0233 L178.1563,460.0233 L134.6563,460.0233 L130.6563,440.0233 L126.6563,460.0233 L73.1563,460.0233 A0,0 0 0 0 73.1563,460.0233 " fill="#FEFFDD" style="stroke:#181818;stroke-width:0.5;"/><path d="M178.1563,460.0233 L178.1563,470.0233 L188.1563,470.0233 L178.1563,460.0233 " fill="#FEFFDD" style="stroke:#181818;stroke-width:0.5;"/><text fill="#000000" font-family="sans-serif" font-size="13" lengthAdjust="spacing" textLength="88" x="82.1563" y="478.9203">true, t, yes, y, 1</text><line style="stroke:#181818;stroke-width:1.5;" x1="73.1563" x2="111.6563" y1="425.4893" y2="425.4893"/><path d="M90.4063,425.4893 L90.4063,422.4893 L96.4063,425.4893 L90.4063,428.4893 L90.4063,425.4893 " fill="#181818" style="stroke:#181818;stroke-width:1.5;"/><line style="stroke:#181818;stroke-width:1.5;" x1="149.6563" x2="188.1563" y1="425.4893" y2="425.4893"/><path d="M166.9063,425.4893 L166.9063,422.4893 L172.9063,425.4893 L166.9063,428.4893 L166.9063,425.4893 " fill="#181818" style="stroke:#181818;stroke-width:1.5;"/><line style="stroke:#181818;stroke-width:1.5;" x1="49.1563" x2="73.1563" y1="425.4893" y2="425.4893"/><line style="stroke:#181818;stroke-width:1.5;" x1="188.1563" x2="212.1563" y1="425.4893" y2="425.4893"/><rect fill="#F1F1F1" height="29.0679" rx="5" ry="5" style="stroke:#181818;stroke-width:1.5;" width="42" x="108.6563" y="497.7293"/><text fill="#000000" font-family="sans-serif" font-size="14" lengthAdjust="spacing" textLength="32" x="113.6563" y="517.6952">false</text><path d="M73.1563,546.7972 L73.1563,574.5032 A0,0 0 0 0 73.1563,574.5032 L186.1563,574.5032 A0,0 0 0 0 186.1563,574.5032 L186.1563,556.7972 L176.1563,546.7972 L133.6563,546.7972 L129.6563,526.7972 L125.6563,546.7972 L73.1563,546.7972 A0,0 0 0 0 73.1563,546.7972 " fill="#FEFFDD" style="stroke:#181818;stroke-width:0.5;"/><path d="M176.1563,546.7972 L176.1563,556.7972 L186.1563,556.7972 L176.1563,546.7972 " fill="#FEFFDD" style="stroke:#181818;stroke-width:0.5;"/><text fill="#000000" font-family="sans-serif" font-size="13" lengthAdjust="spacing" textLength="86" x="82.1563" y="565.6942">false, f, no, n, 0</text><line style="stroke:#181818;stroke-width:1.5;" x1="73.1563" x2="108.6563" y1="512.2633" y2="512.2633"/><path d="M88.9063,512.2633 L88.9063,509.2633 L94.9063,512.2633 L88.9063,515.2633 L88.9063,512.2633 " fill="#181818" style="stroke:#181818;stroke-width:1.5;"/><line style="stroke:#181818;stroke-width:1.5;" x1="150.6563" x2="186.1563" y1="512.2633" y2="512.2633"/><path d="M166.4063,512.2633 L166.4063,509.2633 L172.4063,512.2633 L166.4063,515.2633 L166.4063,512.2633 " fill="#181818" style="stroke:#181818;stroke-width:1.5;"/><line style="stroke:#181818;stroke-width:1.5;" x1="186.1563" x2="188.1563" y1="512.2633" y2="512.2633"/><path d="M61.1563,500.2633 C61.1563,509.2633 64.1563,512.2633 73.1563,512.2633 " fill="none" style="stroke:#181818;stroke-width:1.5;"/><line style="stroke:#181818;stroke-width:1.5;" x1="61.1563" x2="61.1563" y1="437.4893" y2="500.2633"/><path d="M49.1563,425.4893 C58.1563,425.4893 61.1563,428.4893 61.1563,437.4893 " fill="none" style="stroke:#181818;stroke-width:1.5;"/><path d="M200.1563,500.2633 C200.1563,509.2633 197.1563,512.2633 188.1563,512.2633 " fill="none" style="stroke:#181818;stroke-width:1.5;"/><line style="stroke:#181818;stroke-width:1.5;" x1="200.1563" x2="200.1563" y1="437.4893" y2="500.2633"/><path d="M200.1563,437.4893 C200.1563,428.4893 203.1563,425.4893 212.1563,425.4893 " fill="none" style="stroke:#181818;stroke-width:1.5;"/><ellipse cx="23.1563" cy="425.4893" fill="none" rx="4" ry="4" style="stroke:#181818;stroke-width:2.0;"/><ellipse cx="242.1563" cy="425.4893" fill="#181818" rx="4" ry="4" style="stroke:#181818;stroke-width:1.0;"/><line style="stroke:#181818;stroke-width:1.5;" x1="27.1563" x2="49.1563" y1="425.4893" y2="425.4893"/><line style="stroke:#181818;stroke-width:1.5;" x1="212.1563" x2="238.1563" y1="425.4893" y2="425.4893"/><path d="M223.1563,425.4893 L223.1563,422.4893 L229.1563,425.4893 L223.1563,428.4893 L223.1563,425.4893 " fill="#181818" style="stroke:#181818;stroke-width:1.5;"/><!--SRC=[RL5TJoen47tlhpZPfrrS5FHgo18I1JyIX5oYwDDzwRApf4cPOhV54FM_szq5VRbDs-dCd7FQcLvNJbf7EPV2AQS9OwzqaHk7YTbi91TGZ8NN6a_qvgbguyHEh0xv4QAp_42AKdoOhLE6uqvhfUuaNzsXQ3sC10uZgidI6RiFf6WK8KLkZ2R9-C5y8YgDNL6B-3-WkPhi3wHrMMu8SGV_ta_GIHhyK1pf8yG71MSz1LHjKhWKUwh2bg9_97sYbBfgf9f3YZ85cx1Iz6fGCXJNn4NJGB7GajtBV8OTsQekjtzwtZk_EBsAbvvmixNe3yBCUXVPvG2Jk-SbwdmYueV539NneLOKgd9MvRxkLoAcSYVnvDcf3MNukoMUtZuU0xZZdRA6c_-Oliv_0LT_kcFby4msF0MlSt5BfVJQ1SRA58hN6LwMzzs1c4bUUxaEsiHYOeAktMTu67y3]--></g></svg>