<?xml version="1.0" encoding="us-ascii" standalone="no"?><svg xmlns="http://www.w3.org/2000/svg" xmlns:xlink="http://www.w3.org/1999/xlink" contentStyleType="text/css" height="601px" preserveAspectRatio="none" style="width:355px;height:601px;background:#FFFFFF;" version="1.1" viewBox="0 0 355 601" width="355px" zoomAndPan="magnify"><defs/><g><text fill="#000000" font-family="sans-serif" font-size="14" font-weight="bold" lengthAdjust="spacing" textLength="312.3125" x="20" y="34.9659">Buildbot Command in Pull Request Comment</text><text fill="#000000" font-family="sans-serif" font-size="14" font-weight="bold" lengthAdjust="spacing" textLength="69.0625" x="21.1563" y="65.0339">command</text><line style="stroke:#181818;stroke-width:1.5;" x1="51.1563" x2="51.1563" y1="105.6698" y2="105.6698"/><rect fill="none" height="29.0679" style="stroke:#181818;stroke-width:0.5;" width="68" x="51.1563" y="91.1358"/><text fill="#000000" font-family="sans-serif" font-size="14" lengthAdjust="spacing" textLength="58" x="56.1563" y="111.1018">/buildbot</text><line style="stroke:#181818;stroke-width:1.5;" x1="119.1563" x2="139.1563" y1="105.6698" y2="105.6698"/><path d="M147.1563,97.6698 C147.1563,103.6698 149.1563,105.6698 155.1563,105.6698 " fill="none" style="stroke:#181818;stroke-width:1.5;"/><line style="stroke:#181818;stroke-width:1.5;" x1="147.1563" x2="147.1563" y1="92.1358" y2="97.6698"/><path d="M147.1563,92.1358 C147.1563,86.1358 149.1563,84.1358 155.1563,84.1358 " fill="none" style="stroke:#181818;stroke-width:1.5;"/><line style="stroke:#181818;stroke-width:1.5;" x1="154.1563" x2="224.1563" y1="84.1358" y2="84.1358"/><path d="M194.1563,84.1358 L194.1563,81.1358 L188.1563,84.1358 L194.1563,87.1358 L194.1563,84.1358 " fill="#181818" style="stroke:#181818;stroke-width:1.5;"/><path d="M231.1563,97.6698 C231.1563,103.6698 229.1563,105.6698 223.1563,105.6698 " fill="none" style="stroke:#181818;stroke-width:1.5;"/><line style="stroke:#181818;stroke-width:1.5;" x1="231.1563" x2="231.1563" y1="92.1358" y2="97.6698"/><path d="M223.1563,84.1358 C229.1563,84.1358 231.1563,86.1358 231.1563,92.1358 " fill="none" style="stroke:#181818;stroke-width:1.5;"/><line style="stroke:#181818;stroke-width:1.5;" x1="139.1563" x2="154.1563" y1="105.6698" y2="105.6698"/><line style="stroke:#181818;stroke-width:1.5;" x1="224.1563" x2="239.1563" y1="105.6698" y2="105.6698"/><rect fill="#F1F1F1" height="29.0679" rx="5" ry="5" style="stroke:#181818;stroke-width:1.5;" width="53" x="162.6563" y="91.1358"/><text fill="#000000" font-family="sans-serif" font-size="14" lengthAdjust="spacing" textLength="43" x="167.6563" y="111.1018">option</text><path d="M154.1563,140.2038 L154.1563,167.9098 A0,0 0 0 0 154.1563,167.9098 L224.1563,167.9098 A0,0 0 0 0 224.1563,167.9098 L224.1563,150.2038 L214.1563,140.2038 L193.1563,140.2038 L189.1563,120.2038 L185.1563,140.2038 L154.1563,140.2038 A0,0 0 0 0 154.1563,140.2038 " fill="#FEFFDD" style="stroke:#181818;stroke-width:0.5;"/><path d="M214.1563,140.2038 L214.1563,150.2038 L224.1563,150.2038 L214.1563,140.2038 " fill="#FEFFDD" style="stroke:#181818;stroke-width:0.5;"/><text fill="#000000" font-family="sans-serif" font-size="13" lengthAdjust="spacing" textLength="49" x="160.1563" y="159.1008">optional</text><line style="stroke:#181818;stroke-width:1.5;" x1="154.1563" x2="162.6563" y1="105.6698" y2="105.6698"/><line style="stroke:#181818;stroke-width:1.5;" x1="215.6563" x2="224.1563" y1="105.6698" y2="105.6698"/><ellipse cx="25.1563" cy="105.6698" fill="none" rx="4" ry="4" style="stroke:#181818;stroke-width:2.0;"/><ellipse cx="269.1563" cy="105.6698" fill="#181818" rx="4" ry="4" style="stroke:#181818;stroke-width:1.0;"/><line style="stroke:#181818;stroke-width:1.5;" x1="29.1563" x2="51.1563" y1="105.6698" y2="105.6698"/><line style="stroke:#181818;stroke-width:1.5;" x1="239.1563" x2="265.1563" y1="105.6698" y2="105.6698"/><path d="M250.1563,105.6698 L250.1563,102.6698 L256.1563,105.6698 L250.1563,108.6698 L250.1563,105.6698 " fill="#181818" style="stroke:#181818;stroke-width:1.5;"/><text fill="#000000" font-family="sans-serif" font-size="14" font-weight="bold" lengthAdjust="spacing" textLength="45.625" x="21.1563" y="197.8757">option</text><line style="stroke:#181818;stroke-width:1.5;" x1="75.1563" x2="75.1563" y1="226.5116" y2="226.5116"/><rect fill="none" height="29.0679" style="stroke:#181818;stroke-width:0.5;" width="82" x="75.1563" y="211.9777"/><text fill="#000000" font-family="sans-serif" font-size="14" lengthAdjust="spacing" textLength="72" x="80.1563" y="231.9436">mandatory</text><line style="stroke:#181818;stroke-width:1.5;" x1="157.1563" x2="177.1563" y1="226.5116" y2="226.5116"/><rect fill="none" height="29.0679" style="stroke:#181818;stroke-width:0.5;" width="18" x="177.1563" y="211.9777"/><text fill="#000000" font-family="sans-serif" font-size="14" lengthAdjust="spacing" textLength="8" x="182.1563" y="231.9436">=</text><line style="stroke:#181818;stroke-width:1.5;" x1="195.1563" x2="215.1563" y1="226.5116" y2="226.5116"/><rect fill="#F1F1F1" height="29.0679" rx="5" ry="5" style="stroke:#181818;stroke-width:1.5;" width="63" x="215.1563" y="211.9777"/><text fill="#000000" font-family="sans-serif" font-size="14" lengthAdjust="spacing" textLength="53" x="220.1563" y="231.9436">boolean</text><line style="stroke:#181818;stroke-width:1.5;" x1="51.1563" x2="75.1563" y1="226.5116" y2="226.5116"/><line style="stroke:#181818;stroke-width:1.5;" x1="278.1563" x2="302.1563" y1="226.5116" y2="226.5116"/><line style="stroke:#181818;stroke-width:1.5;" x1="75.1563" x2="75.1563" y1="265.5796" y2="265.5796"/><rect fill="none" height="29.0679" style="stroke:#181818;stroke-width:0.5;" width="44" x="75.1563" y="251.0456"/><text fill="#000000" font-family="sans-serif" font-size="14" lengthAdjust="spacing" textLength="34" x="80.1563" y="271.0115">force</text><line style="stroke:#181818;stroke-width:1.5;" x1="119.1563" x2="139.1563" y1="265.5796" y2="265.5796"/><rect fill="none" height="29.0679" style="stroke:#181818;stroke-width:0.5;" width="18" x="139.1563" y="251.0456"/><text fill="#000000" font-family="sans-serif" font-size="14" lengthAdjust="spacing" textLength="8" x="144.1563" y="271.0115">=</text><line style="stroke:#181818;stroke-width:1.5;" x1="157.1563" x2="177.1563" y1="265.5796" y2="265.5796"/><rect fill="#F1F1F1" height="29.0679" rx="5" ry="5" style="stroke:#181818;stroke-width:1.5;" width="63" x="177.1563" y="251.0456"/><text fill="#000000" font-family="sans-serif" font-size="14" lengthAdjust="spacing" textLength="53" x="182.1563" y="271.0115">boolean</text><path d="M63.1563,253.5796 C63.1563,262.5796 66.1563,265.5796 75.1563,265.5796 " fill="none" style="stroke:#181818;stroke-width:1.5;"/><line style="stroke:#181818;stroke-width:1.5;" x1="240.1563" x2="278.1563" y1="265.5796" y2="265.5796"/><path d="M257.1563,265.5796 L257.1563,262.5796 L263.1563,265.5796 L257.1563,268.5796 L257.1563,265.5796 " fill="#181818" style="stroke:#181818;stroke-width:1.5;"/><path d="M290.1563,253.5796 C290.1563,262.5796 287.1563,265.5796 278.1563,265.5796 " fill="none" style="stroke:#181818;stroke-width:1.5;"/><line style="stroke:#181818;stroke-width:1.5;" x1="75.1563" x2="75.1563" y1="304.6475" y2="304.6475"/><rect fill="none" height="29.0679" style="stroke:#181818;stroke-width:0.5;" width="53" x="75.1563" y="290.1135"/><text fill="#000000" font-family="sans-serif" font-size="14" lengthAdjust="spacing" textLength="43" x="80.1563" y="310.0795">builder</text><line style="stroke:#181818;stroke-width:1.5;" x1="128.1563" x2="148.1563" y1="304.6475" y2="304.6475"/><rect fill="none" height="29.0679" style="stroke:#181818;stroke-width:0.5;" width="18" x="148.1563" y="290.1135"/><text fill="#000000" font-family="sans-serif" font-size="14" lengthAdjust="spacing" textLength="8" x="153.1563" y="310.0795">=</text><line style="stroke:#181818;stroke-width:1.5;" x1="166.1563" x2="186.1563" y1="304.6475" y2="304.6475"/><rect fill="#F1F1F1" height="29.0679" rx="5" ry="5" style="stroke:#181818;stroke-width:1.5;" width="90" x="186.1563" y="290.1135"/><text fill="#000000" font-family="sans-serif" font-size="14" lengthAdjust="spacing" textLength="80" x="191.1563" y="310.0795">buildername</text><path d="M206.6563,339.1814 L206.6563,366.8875 A0,0 0 0 0 206.6563,366.8875 L255.6563,366.8875 A0,0 0 0 0 255.6563,366.8875 L255.6563,349.1814 L245.6563,339.1814 L235.1563,339.1814 L231.1563,319.1814 L227.1563,339.1814 L206.6563,339.1814 A0,0 0 0 0 206.6563,339.1814 " fill="#FEFFDD" style="stroke:#181818;stroke-width:0.5;"/><path d="M245.6563,339.1814 L245.6563,349.1814 L255.6563,349.1814 L245.6563,339.1814 " fill="#FEFFDD" style="stroke:#181818;stroke-width:0.5;"/><text fill="#000000" font-family="sans-serif" font-size="13" lengthAdjust="spacing" textLength="22" x="215.6563" y="358.0784">\w+</text><line style="stroke:#181818;stroke-width:1.5;" x1="276.1563" x2="278.1563" y1="304.6475" y2="304.6475"/><path d="M63.1563,292.6475 C63.1563,301.6475 66.1563,304.6475 75.1563,304.6475 " fill="none" style="stroke:#181818;stroke-width:1.5;"/><line style="stroke:#181818;stroke-width:1.5;" x1="63.1563" x2="63.1563" y1="238.5116" y2="292.6475"/><path d="M51.1563,226.5116 C60.1563,226.5116 63.1563,229.5116 63.1563,238.5116 " fill="none" style="stroke:#181818;stroke-width:1.5;"/><path d="M290.1563,292.6475 C290.1563,301.6475 287.1563,304.6475 278.1563,304.6475 " fill="none" style="stroke:#181818;stroke-width:1.5;"/><line style="stroke:#181818;stroke-width:1.5;" x1="290.1563" x2="290.1563" y1="238.5116" y2="292.6475"/><path d="M290.1563,238.5116 C290.1563,229.5116 293.1563,226.5116 302.1563,226.5116 " fill="none" style="stroke:#181818;stroke-width:1.5;"/><ellipse cx="25.1563" cy="226.5116" fill="none" rx="4" ry="4" style="stroke:#181818;stroke-width:2.0;"/><ellipse cx="332.1563" cy="226.5116" fill="#181818" rx="4" ry="4" style="stroke:#181818;stroke-width:1.0;"/><line style="stroke:#181818;stroke-width:1.5;" x1="29.1563" x2="51.1563" y1="226.5116" y2="226.5116"/><line style="stroke:#181818;stroke-width:1.5;" x1="302.1563" x2="328.1563" y1="226.5116" y2="226.5116"/><path d="M313.1563,226.5116 L313.1563,223.5116 L319.1563,226.5116 L313.1563,229.5116 L313.1563,226.5116 " fill="#181818" style="stroke:#181818;stroke-width:1.5;"/><text fill="#000000" font-family="sans-serif" font-size="14" font-weight="bold" lengthAdjust="spacing" textLength="56.0625" x="21.1563" y="396.8534">boolean</text><rect fill="#F1F1F1" height="29.0679" rx="5" ry="5" style="stroke:#181818;stroke-width:1.5;" width="37" x="114.6563" y="410.9554"/><text fill="#000000" font-family="sans-serif" font-size="14" lengthAdjust="spacing" textLength="27" x="119.6563" y="430.9213">true</text><path d="M75.1563,460.0233 L75.1563,487.7293 A0,0 0 0 0 75.1563,487.7293 L191.1563,487.7293 A0,0 0 0 0 191.1563,487.7293 L191.1563,470.0233 L181.1563,460.0233 L137.1563,460.0233 L133.1563,440.0233 L129.1563,460.0233 L75.1563,460.0233 A0,0 0 0 0 75.1563,460.0233 " fill="#FEFFDD" style="stroke:#181818;stroke-width:0.5;"/><path d="M181.1563,460.0233 L181.1563,470.0233 L191.1563,470.0233 L181.1563,460.0233 " fill="#FEFFDD" style="stroke:#181818;stroke-width:0.5;"/><text fill="#000000" font-family="sans-serif" font-size="13" lengthAdjust="spacing" textLength="89" x="84.1563" y="478.9203">true, t, yes, y, 1</text><line style="stroke:#181818;stroke-width:1.5;" x1="75.1563" x2="114.6563" y1="425.4893" y2="425.4893"/><path d="M92.9063,425.4893 L92.9063,422.4893 L98.9063,425.4893 L92.9063,428.4893 L92.9063,425.4893 " fill="#181818" style="stroke:#181818;stroke-width:1.5;"/><line style="stroke:#181818;stroke-width:1.5;" x1="151.6563" x2="191.1563" y1="425.4893" y2="425.4893"/><path d="M169.4063,425.4893 L169.4063,422.4893 L175.4063,425.4893 L169.4063,428.4893 L169.4063,425.4893 " fill="#181818" style="stroke:#181818;stroke-width:1.5;"/><line style="stroke:#181818;stroke-width:1.5;" x1="51.1563" x2="75.1563" y1="425.4893" y2="425.4893"/><line style="stroke:#181818;stroke-width:1.5;" x1="191.1563" x2="216.1563" y1="425.4893" y2="425.4893"/><rect fill="#F1F1F1" height="29.0679" rx="5" ry="5" style="stroke:#181818;stroke-width:1.5;" width="41" x="113.1563" y="497.7293"/><text fill="#000000" font-family="sans-serif" font-size="14" lengthAdjust="spacing" textLength="31" x="118.1563" y="517.6952">false</text><path d="M75.1563,546.7972 L75.1563,574.5032 A0,0 0 0 0 75.1563,574.5032 L192.1563,574.5032 A0,0 0 0 0 192.1563,574.5032 L192.1563,556.7972 L182.1563,546.7972 L137.6563,546.7972 L133.6563,526.7972 L129.6563,546.7972 L75.1563,546.7972 A0,0 0 0 0 75.1563,546.7972 " fill="#FEFFDD" style="stroke:#181818;stroke-width:0.5;"/><path d="M182.1563,546.7972 L182.1563,556.7972 L192.1563,556.7972 L182.1563,546.7972 " fill="#FEFFDD" style="stroke:#181818;stroke-width:0.5;"/><text fill="#000000" font-family="sans-serif" font-size="13" lengthAdjust="spacing" textLength="90" x="84.1563" y="565.6942">false, f, no, n, 0</text><line style="stroke:#181818;stroke-width:1.5;" x1="75.1563" x2="113.1563" y1="512.2633" y2="512.2633"/><path d="M92.1563,512.2633 L92.1563,509.2633 L98.1563,512.2633 L92.1563,515.2633 L92.1563,512.2633 " fill="#181818" style="stroke:#181818;stroke-width:1.5;"/><line style="stroke:#181818;stroke-width:1.5;" x1="154.1563" x2="192.1563" y1="512.2633" y2="512.2633"/><path d="M171.1563,512.2633 L171.1563,509.2633 L177.1563,512.2633 L171.1563,515.2633 L171.1563,512.2633 " fill="#181818" style="stroke:#181818;stroke-width:1.5;"/><line style="stroke:#181818;stroke-width:1.5;" x1="192.1563" x2="192.1563" y1="512.2633" y2="512.2633"/><path d="M63.1563,500.2633 C63.1563,509.2633 66.1563,512.2633 75.1563,512.2633 " fill="none" style="stroke:#181818;stroke-width:1.5;"/><line style="stroke:#181818;stroke-width:1.5;" x1="63.1563" x2="63.1563" y1="437.4893" y2="500.2633"/><path d="M51.1563,425.4893 C60.1563,425.4893 63.1563,428.4893 63.1563,437.4893 " fill="none" style="stroke:#181818;stroke-width:1.5;"/><path d="M204.1563,500.2633 C204.1563,509.2633 201.1563,512.2633 192.1563,512.2633 " fill="none" style="stroke:#181818;stroke-width:1.5;"/><line style="stroke:#181818;stroke-width:1.5;" x1="204.1563" x2="204.1563" y1="437.4893" y2="500.2633"/><path d="M204.1563,437.4893 C204.1563,428.4893 207.1563,425.4893 216.1563,425.4893 " fill="none" style="stroke:#181818;stroke-width:1.5;"/><ellipse cx="25.1563" cy="425.4893" fill="none" rx="4" ry="4" style="stroke:#181818;stroke-width:2.0;"/><ellipse cx="246.1563" cy="425.4893" fill="#181818" rx="4" ry="4" style="stroke:#181818;stroke-width:1.0;"/><line style="stroke:#181818;stroke-width:1.5;" x1="29.1563" x2="51.1563" y1="425.4893" y2="425.4893"/><line style="stroke:#181818;stroke-width:1.5;" x1="216.1563" x2="242.1563" y1="425.4893" y2="425.4893"/><path d="M227.1563,425.4893 L227.1563,422.4893 L233.1563,425.4893 L227.1563,428.4893 L227.1563,425.4893 " fill="#181818" style="stroke:#181818;stroke-width:1.5;"/><!--SRC=[RL5TJoen47tlhpZPfrrS5FHgo18I1JyIX5oYwDDzwRApf4cPOhV54FM_szq5VRbDs-dCd7FQcLvNJbf7EPV2AQS9OwzqaHk7YTbi91TGZ8NN6a_qvgbguyHEh0xv4QAp_42AKdoOhLE6uqvhfUuaNzsXQ3sC10uZgidI6RiFf6WK8KLkZ2R9-C5y8YgDNL6B-3-WkPhi3wHrMMu8SGV_ta_GIHhyK1pf8yG71MSz1LHjKhWKUwh2bg9_97sYbBfgf9f3YZ85cx1Iz6fGCXJNn4NJGB7GajtBV8OTsQekjtzwtZk_EBsAbvvmixNe3yBCUXVPvG2Jk-SbwdmYueV539NneLOKgd9MvRxkLoAcSYVnvDcf3MNukoMUtZuU0xZZdRA6c_-Oliv_0LT_kcFby4msF0MlSt5BfVJQ1SRA58hN6LwMzzs1c4bUUxaEsiHYOeAktMTu67y3]--></g></svg>